savate-italique.ufo
<glyph name="exclam" format="1">
  <advance width="320"/>
  <unicode hex="0021"/>
  <outline>
    <contour>
      <point x="304" y="446"/>
      <point x="375" y="509"/>
      <point x="375" y="642" type="curve" smooth="yes"/>
      <point x="375" y="682"/>
      <point x="362" y="726"/>
      <point x="318" y="726" type="curve"/>
      <point x="187" y="726"/>
      <point x="196" y="549"/>
      <point x="196" y="465" type="curve" smooth="yes"/>
      <point x="197" y="421"/>
      <point x="199" y="368"/>
      <point x="192" y="306" type="curve" smooth="yes"/>
      <point x="189" y="281"/>
      <point x="184" y="245"/>
      <point x="168" y="200" type="curve"/>
      <point x="238" y="200" type="line"/>
      <point x="243" y="245"/>
      <point x="251" y="280"/>
      <point x="260" y="306" type="curve" smooth="yes"/>
    </contour>
    <contour>
      <point x="213" y="-12"/>
      <point x="241" y="15"/>
      <point x="241" y="55" type="curve"/>
      <point x="241" y="83"/>
      <point x="221" y="107"/>
      <point x="187" y="107" type="curve"/>
      <point x="135" y="107"/>
      <point x="108" y="75"/>
      <point x="108" y="38" type="curve" smooth="yes"/>
      <point x="108" y="11"/>
      <point x="129" y="-12"/>
      <point x="165" y="-12" type="curve" smooth="yes"/>
    </contour>
  </outline>
</glyph>
<glyph name="numbersign" format="1">
  <advance width="520"/>
  <unicode hex="0023"/>
  <outline>
    <contour>
      <point x="364" y="600" type="line"/>
      <point x="306" y="600" type="line"/>
      <point x="58" y="-50" type="line"/>
      <point x="116" y="-50" type="line"/>
    </contour>
    <contour>
      <point x="574" y="600" type="line"/>
      <point x="516" y="600" type="line"/>
      <point x="265" y="-50" type="line"/>
      <point x="327" y="-50" type="line"/>
    </contour>
    <contour>
      <point x="443" y="77" type="line"/>
      <point x="488" y="201" type="line"/>
      <point x="95" y="201" type="line"/>
      <point x="43" y="77" type="line"/>
    </contour>
    <contour>
      <point x="538" y="343" type="line"/>
      <point x="597" y="491" type="line"/>
      <point x="201" y="491" type="line"/>
      <point x="142" y="343" type="line"/>
    </contour>
  </outline>
</glyph>
<glyph name="dollar" format="1">
  <advance width="770"/>
  <unicode hex="0024"/>
  <outline>
    <contour>
      <point x="286" y="-85" type="line"/>
      <point x="354" y="-85" type="line"/>
      <point x="548" y="830" type="line"/>
      <point x="480" y="830" type="line"/>
    </contour>
    <component base="S" xOffset="10"/>
  </outline>
</glyph>
<glyph name="percent" format="1">
  <advance width="720"/>
  <unicode hex="0025"/>
  <outline>
    <contour>
      <point x="838" y="800" type="line"/>
      <point x="748" y="800" type="line"/>
      <point x="33" y="-90" type="line"/>
      <point x="123" y="-90" type="line"/>
    </contour>
    <contour>
      <point x="365" y="476"/>
      <point x="440" y="547"/>
      <point x="440" y="646" type="curve" smooth="yes"/>
      <point x="440" y="717"/>
      <point x="393" y="760"/>
      <point x="334" y="760" type="curve" smooth="yes"/>
      <point x="247" y="760"/>
      <point x="170" y="687"/>
      <point x="170" y="591" type="curve" smooth="yes"/>
      <point x="170" y="519"/>
      <point x="217" y="476"/>
      <point x="276" y="476" type="curve" smooth="yes"/>
    </contour>
    <contour>
      <point x="388" y="583"/>
      <point x="351" y="555"/>
      <point x="293" y="555" type="curve" smooth="yes"/>
      <point x="251" y="555"/>
      <point x="220" y="574"/>
      <point x="220" y="607" type="curve" smooth="yes"/>
      <point x="220" y="643"/>
      <point x="256" y="672"/>
      <point x="315" y="672" type="curve" smooth="yes"/>
      <point x="359" y="672"/>
      <point x="388" y="650"/>
      <point x="388" y="616" type="curve" smooth="yes"/>
    </contour>
    <contour>
      <point x="635" y="-10"/>
      <point x="710" y="61"/>
      <point x="710" y="160" type="curve" smooth="yes"/>
      <point x="710" y="231"/>
      <point x="663" y="274"/>
      <point x="604" y="274" type="curve" smooth="yes"/>
      <point x="517" y="274"/>
      <point x="440" y="201"/>
      <point x="440" y="105" type="curve" smooth="yes"/>
      <point x="440" y="33"/>
      <point x="487" y="-10"/>
      <point x="546" y="-10" type="curve" smooth="yes"/>
    </contour>
    <contour>
      <point x="658" y="97"/>
      <point x="621" y="69"/>
      <point x="563" y="69" type="curve" smooth="yes"/>
      <point x="521" y="69"/>
      <point x="490" y="88"/>
      <point x="490" y="121" type="curve" smooth="yes"/>
      <point x="490" y="157"/>
      <point x="526" y="186"/>
      <point x="585" y="186" type="curve" smooth="yes"/>
      <point x="629" y="186"/>
      <point x="658" y="164"/>
      <point x="658" y="130" type="curve" smooth="yes"/>
    </contour>
  </outline>
</glyph>
<glyph name="quotesingle" format="1">
  <advance width="170"/>
  <unicode hex="0027"/>
  <outline>
    <contour>
      <point x="155" y="497" type="line"/>
      <point x="186" y="780" type="line"/>
      <point x="311" y="780" type="line"/>
      <point x="210" y="497" type="line"/>
    </contour>
  </outline>
</glyph>
<glyph name="parenleft" format="1">
  <advance width="320"/>
  <unicode hex="0028"/>
  <outline>
    <contour>
      <point x="250" y="-9" type="line"/>
      <point x="202" y="-9"/>
      <point x="159" y="44"/>
      <point x="159" y="157" type="curve" smooth="yes"/>
      <point x="159" y="454"/>
      <point x="280" y="622"/>
      <point x="398" y="622" type="curve"/>
      <point x="457" y="810" type="line"/>
      <point x="278" y="810"/>
      <point x="92" y="557"/>
      <point x="92" y="80" type="curve" smooth="yes"/>
      <point x="92" y="-124"/>
      <point x="178" y="-210"/>
      <point x="234" y="-210" type="curve"/>
    </contour>
  </outline>
</glyph>
<glyph name="parenright" format="1">
  <advance width="320"/>
  <unicode hex="0029"/>
  <outline>
    <contour>
      <point x="66" y="-9" type="curve"/>
      <point x="-2" y="-210" type="line"/>
      <point x="172" y="-210"/>
      <point x="360" y="126"/>
      <point x="360" y="550" type="curve" smooth="yes"/>
      <point x="360" y="734"/>
      <point x="297" y="810"/>
      <point x="207" y="810" type="curve"/>
      <point x="186" y="622" type="line"/>
      <point x="237" y="622"/>
      <point x="285" y="556"/>
      <point x="285" y="405" type="curve" smooth="yes"/>
      <point x="285" y="157"/>
      <point x="151" y="-9"/>
    </contour>
  </outline>
</glyph>
<glyph name="asterisk" format="1">
  <advance width="420"/>
  <unicode hex="002A"/>
  <outline>
    <contour>
      <point x="350" y="475" type="line" smooth="yes"/>
      <point x="442" y="534" type="line"/>
      <point x="362" y="610" type="line"/>
      <point x="481" y="610" type="line"/>
      <point x="473" y="703" type="line"/>
      <point x="364" y="639" type="line"/>
      <point x="418" y="752" type="line"/>
      <point x="315" y="752" type="line"/>
      <point x="329" y="639" type="line"/>
      <point x="247" y="703" type="line"/>
      <point x="199" y="610" type="line"/>
      <point x="317" y="610" type="line"/>
      <point x="206" y="534" type="line"/>
      <point x="271" y="475" type="line"/>
      <point x="335" y="586" type="line"/>
    </contour>
  </outline>
</glyph>
<glyph name="plus" format="1">
  <advance width="520"/>
  <unicode hex="002B"/>
  <outline>
    <contour>
      <point x="431" y="550" type="line"/>
      <point x="353" y="550" type="line"/>
      <point x="211" y="80" type="line"/>
      <point x="289" y="80" type="line"/>
    </contour>
    <contour>
      <point x="512" y="266" type="line"/>
      <point x="535" y="377" type="line"/>
      <point x="145" y="377" type="line"/>
      <point x="122" y="266" type="line"/>
    </contour>
  </outline>
</glyph>
<glyph name="period" format="1">
  <advance width="320"/>
  <unicode hex="002E"/>
  <outline>
    <contour>
      <point x="218" y="-5"/>
      <point x="254" y="27"/>
      <point x="254" y="75" type="curve"/>
      <point x="254" y="111"/>
      <point x="229" y="140"/>
      <point x="188" y="140" type="curve"/>
      <point x="124" y="140"/>
      <point x="89" y="101"/>
      <point x="89" y="54" type="curve" smooth="yes"/>
      <point x="89" y="23"/>
      <point x="116" y="-5"/>
      <point x="160" y="-5" type="curve" smooth="yes"/>
    </contour>
  </outline>
</glyph>
<glyph name="one" format="1">
  <advance width="420"/>
  <unicode hex="0031"/>
  <outline>
    <contour>
      <point x="171" y="452" type="line"/>
      <point x="222" y="452"/>
      <point x="328" y="492"/>
      <point x="362" y="537" type="curve"/>
      <point x="248" y="0" type="line"/>
      <point x="317" y="0" type="line"/>
      <point x="472" y="730" type="line"/>
      <point x="378" y="730" type="line"/>
      <point x="356" y="677"/>
      <point x="251" y="633"/>
      <point x="210" y="633" type="curve"/>
    </contour>
  </outline>
</glyph>
<glyph name="three" format="1">
  <advance width="620"/>
  <unicode hex="0033"/>
  <outline>
    <contour>
      <point x="312" y="-10" type="curve" smooth="yes"/>
      <point x="496" y="-10"/>
      <point x="614" y="103"/>
      <point x="614" y="275" type="curve" smooth="yes"/>
      <point x="614" y="367"/>
      <point x="560" y="436"/>
      <point x="455" y="444" type="curve"/>
      <point x="683" y="680" type="line"/>
      <point x="693" y="730" type="line"/>
      <point x="283" y="730" type="line"/>
      <point x="248" y="565" type="line"/>
      <point x="537" y="565" type="line"/>
      <point x="511" y="579" type="line"/>
      <point x="249" y="317" type="line"/>
      <point x="490" y="352"/>
      <point x="548" y="290"/>
      <point x="548" y="236" type="curve" smooth="yes"/>
      <point x="548" y="171"/>
      <point x="474" y="130"/>
      <point x="351" y="130" type="curve" smooth="yes"/>
      <point x="286" y="130"/>
      <point x="212" y="149"/>
      <point x="183" y="187" type="curve"/>
      <point x="122" y="100" type="line"/>
      <point x="159" y="35"/>
      <point x="230" y="-10"/>
    </contour>
  </outline>
</glyph>
<glyph name="four" format="1">
  <advance width="620"/>
  <unicode hex="0034"/>
  <outline>
    <contour>
      <point x="117" y="258" type="line"/>
      <point x="100" y="181" type="line"/>
      <point x="581" y="181" type="line"/>
      <point x="598" y="258" type="line"/>
      <point x="230" y="258" type="line"/>
      <point x="222" y="223" type="line"/>
      <point x="547" y="637" type="line"/>
      <point x="533" y="637" type="line"/>
      <point x="398" y="0" type="line"/>
      <point x="467" y="0" type="line"/>
      <point x="622" y="730" type="line"/>
      <point x="458" y="730" type="line"/>
    </contour>
  </outline>
</glyph>
<glyph name="five" format="1">
  <advance width="620"/>
  <unicode hex="0035"/>
  <outline>
    <contour>
      <point x="316" y="-10" type="curve" smooth="yes"/>
      <point x="492" y="-10"/>
      <point x="614" y="109"/>
      <point x="614" y="277" type="curve" smooth="yes"/>
      <point x="614" y="374"/>
      <point x="546" y="444"/>
      <point x="443" y="444" type="curve" smooth="yes"/>
      <point x="360" y="444"/>
      <point x="284" y="424"/>
      <point x="258" y="393" type="curve"/>
      <point x="325" y="566" type="line"/>
      <point x="632" y="566" type="line"/>
      <point x="662" y="730" type="line"/>
      <point x="320" y="730" type="line"/>
      <point x="170" y="348" type="line"/>
      <point x="235" y="279" type="line"/>
      <point x="267" y="317"/>
      <point x="326" y="327"/>
      <point x="386" y="327" type="curve" smooth="yes"/>
      <point x="496" y="327"/>
      <point x="548" y="285"/>
      <point x="548" y="235" type="curve" smooth="yes"/>
      <point x="548" y="175"/>
      <point x="482" y="117"/>
      <point x="344" y="117" type="curve" smooth="yes"/>
      <point x="246" y="117"/>
      <point x="185" y="167"/>
      <point x="172" y="208" type="curve"/>
      <point x="96" y="148" type="line"/>
      <point x="112" y="47"/>
      <point x="198" y="-10"/>
    </contour>
  </outline>
</glyph>
<glyph name="six" format="1">
  <advance width="620"/>
  <unicode hex="0036"/>
  <outline>
    <contour>
      <point x="348" y="118" type="curve" smooth="yes"/>
      <point x="246" y="118"/>
      <point x="190" y="159"/>
      <point x="190" y="220" type="curve" smooth="yes"/>
      <point x="190" y="274"/>
      <point x="252" y="338"/>
      <point x="395" y="338" type="curve" smooth="yes"/>
      <point x="496" y="338"/>
      <point x="548" y="295"/>
      <point x="548" y="240" type="curve" smooth="yes"/>
      <point x="548" y="178"/>
      <point x="489" y="118"/>
    </contour>
    <contour>
      <point x="508" y="-10"/>
      <point x="614" y="116"/>
      <point x="614" y="274" type="curve" smooth="yes"/>
      <point x="614" y="385"/>
      <point x="545" y="470"/>
      <point x="429" y="470" type="curve" smooth="yes"/>
      <point x="340" y="470"/>
      <point x="271" y="442"/>
      <point x="224" y="389" type="curve"/>
      <point x="260" y="533"/>
      <point x="343" y="585"/>
      <point x="448" y="585" type="curve" smooth="yes"/>
      <point x="523" y="585"/>
      <point x="572" y="578"/>
      <point x="599" y="545" type="curve"/>
      <point x="651" y="670" type="line"/>
      <point x="616" y="715"/>
      <point x="568" y="740"/>
      <point x="485" y="740" type="curve" smooth="yes"/>
      <point x="317" y="740"/>
      <point x="130" y="522"/>
      <point x="130" y="200" type="curve" smooth="yes"/>
      <point x="130" y="75"/>
      <point x="194" y="-10"/>
      <point x="318" y="-10" type="curve" smooth="yes"/>
    </contour>
  </outline>
</glyph>
<glyph name="eight" format="1">
  <advance width="620"/>
  <unicode hex="0038"/>
  <outline>
    <contour>
      <point x="502" y="-10"/>
      <point x="599" y="95"/>
      <point x="599" y="216" type="curve" smooth="yes"/>
      <point x="599" y="307"/>
      <point x="542" y="379"/>
      <point x="447" y="386" type="curve"/>
      <point x="419" y="337" type="line"/>
      <point x="492" y="344"/>
      <point x="540" y="287"/>
      <point x="540" y="230" type="curve" smooth="yes"/>
      <point x="540" y="170"/>
      <point x="468" y="106"/>
      <point x="333" y="106" type="curve" smooth="yes"/>
      <point x="220" y="106"/>
      <point x="169" y="152"/>
      <point x="169" y="189" type="curve" smooth="yes"/>
      <point x="169" y="239"/>
      <point x="224" y="267"/>
      <point x="372" y="291" type="curve" smooth="yes"/>
      <point x="581" y="324"/>
      <point x="651" y="458"/>
      <point x="651" y="568" type="curve" smooth="yes"/>
      <point x="651" y="676"/>
      <point x="579" y="740"/>
      <point x="468" y="740" type="curve" smooth="yes"/>
      <point x="299" y="740"/>
      <point x="184" y="640"/>
      <point x="184" y="508" type="curve" smooth="yes"/>
      <point x="184" y="423"/>
      <point x="238" y="357"/>
      <point x="346" y="360" type="curve"/>
      <point x="373" y="397" type="line"/>
      <point x="284" y="397"/>
      <point x="239" y="441"/>
      <point x="240" y="481" type="curve" smooth="yes"/>
      <point x="240" y="525"/>
      <point x="295" y="576"/>
      <point x="433" y="576" type="curve" smooth="yes"/>
      <point x="531" y="576"/>
      <point x="583" y="537"/>
      <point x="583" y="502" type="curve" smooth="yes"/>
      <point x="583" y="450"/>
      <point x="509" y="433"/>
      <point x="400" y="420" type="curve" smooth="yes"/>
      <point x="197" y="397"/>
      <point x="107" y="312"/>
      <point x="107" y="182" type="curve" smooth="yes"/>
      <point x="107" y="80"/>
      <point x="180" y="-10"/>
      <point x="308" y="-10" type="curve" smooth="yes"/>
    </contour>
  </outline>
</glyph>
<glyph name="nine" format="1">
  <advance width="620"/>
  <unicode hex="0039"/>
  <outline>
    <contour>
      <point x="429" y="578" type="curve" smooth="yes"/>
      <point x="538" y="578"/>
      <point x="589" y="539"/>
      <point x="589" y="487" type="curve" smooth="yes"/>
      <point x="589" y="418"/>
      <point x="533" y="359"/>
      <point x="383" y="359" type="curve" smooth="yes"/>
      <point x="281" y="359"/>
      <point x="230" y="406"/>
      <point x="230" y="453" type="curve" smooth="yes"/>
      <point x="230" y="524"/>
      <point x="282" y="578"/>
    </contour>
    <contour>
      <point x="321" y="-10" type="curve" smooth="yes"/>
      <point x="501" y="-10"/>
      <point x="654" y="192"/>
      <point x="654" y="527" type="curve" smooth="yes"/>
      <point x="654" y="656"/>
      <point x="587" y="740"/>
      <point x="464" y="740" type="curve" smooth="yes"/>
      <point x="285" y="740"/>
      <point x="170" y="596"/>
      <point x="170" y="453" type="curve"/>
      <point x="170" y="330"/>
      <point x="242" y="250"/>
      <point x="357" y="250" type="curve" smooth="yes"/>
      <point x="447" y="250"/>
      <point x="519" y="282"/>
      <point x="561" y="341" type="curve"/>
      <point x="533" y="194"/>
      <point x="449" y="131"/>
      <point x="334" y="131" type="curve" smooth="yes"/>
      <point x="266" y="131"/>
      <point x="203" y="159"/>
      <point x="184" y="189" type="curve"/>
      <point x="123" y="101" type="line"/>
      <point x="146" y="51"/>
      <point x="213" y="-10"/>
    </contour>
  </outline>
</glyph>
<glyph name="equal" format="1">
  <advance width="520"/>
  <unicode hex="003D"/>
  <outline>
    <contour>
      <point x="532" y="386" type="line"/>
      <point x="555" y="495" type="line"/>
      <point x="176" y="495" type="line"/>
      <point x="153" y="386" type="line"/>
    </contour>
    <contour>
      <point x="485" y="168" type="line"/>
      <point x="508" y="277" type="line"/>
      <point x="129" y="277" type="line"/>
      <point x="106" y="168" type="line"/>
    </contour>
  </outline>
</glyph>
<glyph name="greater" format="1">
  <advance width="520"/>
  <unicode hex="003E"/>
  <outline>
    <contour>
      <point x="516" y="251" type="line"/>
      <point x="537" y="349" type="line"/>
      <point x="184" y="560" type="line"/>
      <point x="154" y="420" type="line"/>
      <point x="474" y="301" type="line"/>
      <point x="108" y="204" type="line"/>
      <point x="82" y="80" type="line"/>
    </contour>
  </outline>
</glyph>
<glyph name="A" format="1">
  <advance width="670"/>
  <unicode hex="0041"/>
  <outline>
    <contour>
      <point x="221" y="202" type="line"/>
      <point x="562" y="202" type="line"/>
      <point x="579" y="278" type="line"/>
      <point x="238" y="278" type="line"/>
    </contour>
    <contour>
      <point x="543" y="730" type="line"/>
      <point x="423" y="730" type="line"/>
      <point x="20" y="0" type="line"/>
      <point x="137" y="0" type="line"/>
      <point x="514" y="626" type="line"/>
      <point x="476" y="626" type="line"/>
      <point x="579" y="0" type="line"/>
      <point x="650" y="0" type="line"/>
    </contour>
  </outline>
</glyph>
<glyph name="J" format="1">
  <advance width="470"/>
  <unicode hex="004A"/>
  <outline>
    <contour>
      <point x="192" y="-10" type="curve" smooth="yes"/>
      <point x="324" y="-10"/>
      <point x="403" y="71"/>
      <point x="446" y="276" type="curve"/>
      <point x="542" y="730" type="line"/>
      <point x="270" y="730" type="line"/>
      <point x="233" y="555" type="line"/>
      <point x="438" y="555" type="line"/>
      <point x="385" y="306" type="line"/>
      <point x="358" y="183"/>
      <point x="298" y="129"/>
      <point x="218" y="129" type="curve" smooth="yes"/>
      <point x="169" y="129"/>
      <point x="117" y="144"/>
      <point x="86" y="172" type="curve"/>
      <point x="37" y="58" type="line"/>
      <point x="55" y="13"/>
      <point x="127" y="-10"/>
    </contour>
  </outline>
</glyph>
<glyph name="K" format="1">
  <advance width="620"/>
  <unicode hex="004B"/>
  <outline>
    <contour>
      <point x="90" y="0" type="line"/>
      <point x="159" y="0" type="line"/>
      <point x="315" y="732" type="line"/>
      <point x="246" y="732" type="line"/>
    </contour>
    <contour>
      <point x="318" y="382" type="line"/>
      <point x="502" y="0" type="line"/>
      <point x="588" y="0" type="line" smooth="yes"/>
      <point x="379" y="445" type="line"/>
    </contour>
    <contour>
      <point x="573" y="730" type="line"/>
      <point x="200" y="366" type="line"/>
      <point x="158" y="168" type="line"/>
      <point x="761" y="730" type="line"/>
    </contour>
  </outline>
</glyph>
<glyph name="P" format="1">
  <advance width="620"/>
  <unicode hex="0050"/>
  <outline>
    <contour>
      <point x="320" y="190" type="line"/>
      <point x="532" y="190"/>
      <point x="655" y="325"/>
      <point x="655" y="525" type="curve" smooth="yes"/>
      <point x="655" y="654"/>
      <point x="577" y="730"/>
      <point x="436" y="730" type="curve"/>
      <point x="221" y="730" type="line"/>
      <point x="66" y="0" type="line"/>
      <point x="135" y="0" type="line"/>
      <point x="175" y="190" type="line"/>
    </contour>
    <contour>
      <point x="390" y="338" type="curve"/>
      <point x="207" y="338" type="line"/>
      <point x="255" y="566" type="line"/>
      <point x="439" y="566" type="line"/>
      <point x="538" y="566"/>
      <point x="585" y="512"/>
      <point x="585" y="455" type="curve" smooth="yes"/>
      <point x="585" y="388"/>
      <point x="518" y="338"/>
    </contour>
  </outline>
</glyph>
<glyph name="Q" format="1">
  <advance width="720"/>
  <unicode hex="0051"/>
  <outline>
    <contour>
      <point x="377" y="282" type="line"/>
      <point x="521" y="-85" type="line"/>
      <point x="608" y="-85" type="line"/>
      <point x="452" y="282" type="line"/>
    </contour>
    <component base="O" xOffset="10"/>
  </outline>
</glyph>
<glyph name="U" format="1">
  <advance width="720"/>
  <unicode hex="0055"/>
  <outline>
    <contour>
      <point x="645" y="361" type="line"/>
      <point x="634" y="308"/>
      <point x="611" y="249"/>
      <point x="574" y="215" type="curve" smooth="yes"/>
      <point x="527" y="173"/>
      <point x="466" y="155"/>
      <point x="394" y="155" type="curve" smooth="yes"/>
      <point x="317" y="155"/>
      <point x="264" y="174"/>
      <point x="233" y="215" type="curve" smooth="yes"/>
      <point x="207" y="251"/>
      <point x="212" y="310"/>
      <point x="225" y="369" type="curve"/>
      <point x="302" y="730" type="line"/>
      <point x="238" y="730" type="line"/>
      <point x="145" y="294" type="line"/>
      <point x="100" y="82"/>
      <point x="194" y="-10"/>
      <point x="356" y="-10" type="curve" smooth="yes"/>
      <point x="526" y="-10"/>
      <point x="652" y="83"/>
      <point x="697" y="296" type="curve"/>
      <point x="789" y="730" type="line"/>
      <point x="723" y="730" type="line"/>
    </contour>
  </outline>
</glyph>
<glyph name="V" format="1">
  <advance width="720"/>
  <unicode hex="0056"/>
  <outline>
    <contour>
      <point x="237" y="0" type="line"/>
      <point x="356" y="0" type="line"/>
      <point x="797" y="729" type="line"/>
      <point x="651" y="729" type="line"/>
      <point x="282" y="106" type="line"/>
      <point x="304" y="104" type="line"/>
      <point x="204" y="730" type="line"/>
      <point x="128" y="730" type="line"/>
    </contour>
  </outline>
</glyph>
<glyph name="Y" format="1">
  <advance width="670"/>
  <unicode hex="0059"/>
  <outline>
    <contour>
      <point x="291" y="0" type="line"/>
      <point x="360" y="0" type="line"/>
      <point x="419" y="277" type="line"/>
      <point x="350" y="277" type="line"/>
    </contour>
    <contour>
      <point x="369" y="179" type="line"/>
      <point x="789" y="730" type="line"/>
      <point x="644" y="730" type="line"/>
      <point x="361" y="343" type="line"/>
      <point x="376" y="343" type="line"/>
      <point x="258" y="730" type="line"/>
      <point x="187" y="730" type="line"/>
    </contour>
  </outline>
</glyph>
<glyph name="backslash" format="1">
  <advance width="470"/>
  <unicode hex="005C"/>
  <outline>
    <contour>
      <point x="299" y="775" type="line"/>
      <point x="228" y="775" type="line"/>
      <point x="297" y="-175" type="line"/>
      <point x="368" y="-175" type="line"/>
    </contour>
  </outline>
</glyph>
<glyph name="grave" format="1">
  <advance width="520"/>
  <unicode hex="0060"/>
  <outline>
    <contour>
      <point x="525" y="613" type="curve"/>
      <point x="542" y="635" type="line"/>
      <point x="530" y="739"/>
      <point x="409" y="802"/>
      <point x="299" y="780" type="curve"/>
      <point x="278" y="654" type="line"/>
      <point x="361" y="693"/>
      <point x="486" y="675"/>
    </contour>
  </outline>
</glyph>
<glyph name="a" format="1">
  <advance width="520"/>
  <unicode hex="0061"/>
  <outline>
    <contour>
      <point x="490" y="0" type="line"/>
      <point x="490" y="50"/>
      <point x="490" y="119"/>
      <point x="500" y="166" type="curve" smooth="yes" name="_p_cornerRadius:73.0"/>
      <point x="570" y="492" type="line" smooth="yes"/>
      <point x="491" y="411" type="line" smooth="yes"/>
      <point x="425" y="101" type="line"/>
      <point x="425" y="0" type="line"/>
    </contour>
    <contour>
      <point x="570" y="492" type="line"/>
      <point x="538" y="528"/>
      <point x="451" y="561"/>
      <point x="363" y="561" type="curve" smooth="yes"/>
      <point x="216" y="561"/>
      <point x="94" y="413"/>
      <point x="94" y="202" type="curve"/>
      <point x="94" y="63"/>
      <point x="159" y="-10"/>
      <point x="248" y="-10" type="curve" smooth="yes"/>
      <point x="351" y="-10"/>
      <point x="433" y="36"/>
      <point x="459" y="112" type="curve"/>
      <point x="447" y="172" type="line"/>
      <point x="416" y="125"/>
      <point x="346" y="107"/>
      <point x="276" y="108" type="curve" smooth="yes"/>
      <point x="205" y="109"/>
      <point x="154" y="159"/>
      <point x="157" y="225" type="curve" smooth="yes"/>
      <point x="161" y="327"/>
      <point x="233" y="402"/>
      <point x="344" y="402" type="curve" smooth="yes"/>
      <point x="409" y="402"/>
      <point x="474" y="380"/>
      <point x="501" y="349" type="curve"/>
    </contour>
  </outline>
</glyph>
<glyph name="b" format="1">
  <advance width="520"/>
  <unicode hex="0062"/>
  <outline>
    <contour>
      <point x="294" y="108" type="curve" smooth="yes"/>
      <point x="188" y="108"/>
      <point x="140" y="153"/>
      <point x="140" y="206" type="curve"/>
      <point x="140" y="99" type="line"/>
      <point x="176" y="266" type="line"/>
      <point x="192" y="343"/>
      <point x="245" y="402"/>
      <point x="358" y="402" type="curve" smooth="yes"/>
      <point x="443" y="402"/>
      <point x="486" y="340"/>
      <point x="486" y="281" type="curve" smooth="yes"/>
      <point x="486" y="181"/>
      <point x="410" y="108"/>
    </contour>
    <contour>
      <point x="270" y="-10" type="curve" smooth="yes"/>
      <point x="433" y="-10"/>
      <point x="555" y="146"/>
      <point x="555" y="363" type="curve" smooth="yes"/>
      <point x="555" y="490"/>
      <point x="482" y="560"/>
      <point x="388" y="560" type="curve" smooth="yes"/>
      <point x="310" y="560"/>
      <point x="220" y="516"/>
      <point x="187" y="391" type="curve"/>
      <point x="202" y="387" type="line"/>
      <point x="286" y="780" type="line"/>
      <point x="222" y="780" type="line"/>
      <point x="81" y="119" type="line"/>
      <point x="81" y="54"/>
      <point x="162" y="-10"/>
    </contour>
  </outline>
</glyph>
<glyph name="d" format="1">
  <advance width="520"/>
  <unicode hex="0064"/>
  <outline>
    <contour>
      <point x="272" y="108" type="curve" smooth="yes"/>
      <point x="188" y="108"/>
      <point x="148" y="162"/>
      <point x="148" y="230" type="curve" smooth="yes"/>
      <point x="148" y="318"/>
      <point x="221" y="398"/>
      <point x="332" y="398" type="curve" smooth="yes"/>
      <point x="445" y="398"/>
      <point x="473" y="340"/>
      <point x="459" y="266" type="curve"/>
      <point x="435" y="156" type="line"/>
      <point x="436" y="148"/>
      <point x="471" y="214"/>
      <point x="467" y="208" type="curve" smooth="yes"/>
      <point x="419" y="126"/>
      <point x="360" y="108"/>
    </contour>
    <contour>
      <point x="200" y="561"/>
      <point x="85" y="426"/>
      <point x="85" y="187" type="curve"/>
      <point x="85" y="73"/>
      <point x="140" y="-10"/>
      <point x="243" y="-10" type="curve" smooth="yes"/>
      <point x="332" y="-10"/>
      <point x="416" y="45"/>
      <point x="451" y="130" type="curve"/>
      <point x="429" y="125" type="line"/>
      <point x="412" y="0" type="line"/>
      <point x="465" y="0" type="line"/>
      <point x="631" y="780" type="line"/>
      <point x="568" y="780" type="line"/>
      <point x="484" y="387" type="line"/>
      <point x="504" y="395" type="line"/>
      <point x="515" y="512"/>
      <point x="437" y="560"/>
      <point x="360" y="560" type="curve" smooth="yes"/>
    </contour>
  </outline>
</glyph>
<glyph name="f" format="1">
  <advance width="370"/>
  <unicode hex="0066"/>
  <outline>
    <contour>
      <point x="298" y="508" type="line"/>
      <point x="298.0" y="595.0"/>
      <point x="349.147540984" y="644.0"/>
      <point x="418" y="644" type="curve" smooth="yes"/>
      <point x="458" y="644"/>
      <point x="482" y="639"/>
      <point x="494" y="630" type="curve"/>
      <point x="528" y="768" type="line"/>
      <point x="513.220795258" y="778.838083478"/>
      <point x="484.022727273" y="790.0"/>
      <point x="442" y="790" type="curve" smooth="yes"/>
      <point x="343" y="790"/>
      <point x="232" y="708"/>
      <point x="232" y="508" type="curve"/>
    </contour>
    <contour>
      <point x="392" y="366" type="line"/>
      <point x="427" y="530" type="line"/>
      <point x="169" y="530" type="line"/>
      <point x="134" y="366" type="line"/>
    </contour>
    <contour>
      <point x="130" y="-18"/>
      <point x="93" y="-64"/>
      <point x="43" y="-64" type="curve" smooth="yes"/>
      <point x="11" y="-64"/>
      <point x="-11" y="-51"/>
      <point x="-21" y="-37" type="curve"/>
      <point x="-76" y="-168" type="line"/>
      <point x="-61" y="-191"/>
      <point x="-32" y="-210"/>
      <point x="20" y="-210" type="curve" smooth="yes"/>
      <point x="112" y="-210"/>
      <point x="171" y="-122"/>
      <point x="215" y="82" type="curve"/>
      <point x="282" y="394" type="line"/>
      <point x="219" y="394" type="line"/>
      <point x="152" y="82" type="line"/>
    </contour>
  </outline>
</glyph>
<glyph name="i" format="1">
  <advance width="320"/>
  <unicode hex="0069"/>
  <outline>
    <contour>
      <point x="165" y="0" type="line"/>
      <point x="228" y="0" type="line"/>
      <point x="343" y="530" type="line"/>
      <point x="159" y="530" type="line"/>
      <point x="123" y="363" type="line"/>
      <point x="242" y="363" type="line"/>
    </contour>
    <contour>
      <point x="357" y="625"/>
      <point x="397" y="669"/>
      <point x="397" y="728" type="curve" smooth="yes"/>
      <point x="397" y="767"/>
      <point x="371" y="790"/>
      <point x="328" y="790" type="curve" smooth="yes"/>
      <point x="255" y="790"/>
      <point x="220" y="754"/>
      <point x="220" y="690" type="curve" smooth="yes"/>
      <point x="220" y="651"/>
      <point x="245" y="625"/>
      <point x="293" y="625" type="curve" smooth="yes"/>
    </contour>
  </outline>
</glyph>
<glyph name="j" format="1">
  <advance width="320"/>
  <unicode hex="006A"/>
  <outline>
    <contour>
      <point x="230" y="-67" type="curve" smooth="yes"/>
      <point x="359" y="540" type="line"/>
      <point x="175" y="540" type="line"/>
      <point x="138" y="368" type="line"/>
      <point x="259" y="368" type="line"/>
      <point x="183" y="11" type="line" smooth="yes"/>
      <point x="169" y="-58"/>
      <point x="137" y="-78"/>
      <point x="91" y="-80" type="curve" smooth="yes"/>
      <point x="67" y="-81"/>
      <point x="37" y="-73"/>
      <point x="21" y="-48" type="curve"/>
      <point x="-28" y="-148" type="line"/>
      <point x="-16" y="-179"/>
      <point x="17" y="-210"/>
      <point x="81" y="-210" type="curve" smooth="yes"/>
      <point x="157" y="-210"/>
      <point x="210" y="-159"/>
    </contour>
    <contour>
      <point x="362" y="625"/>
      <point x="402" y="669"/>
      <point x="402" y="728" type="curve" smooth="yes"/>
      <point x="402" y="767"/>
      <point x="376" y="790"/>
      <point x="333" y="790" type="curve" smooth="yes"/>
      <point x="260" y="790"/>
      <point x="225" y="754"/>
      <point x="225" y="690" type="curve" smooth="yes"/>
      <point x="225" y="651"/>
      <point x="250" y="625"/>
      <point x="298" y="625" type="curve" smooth="yes"/>
    </contour>
  </outline>
</glyph>
<glyph name="k" format="1">
  <advance width="520"/>
  <unicode hex="006B"/>
  <outline>
    <contour>
      <point x="56" y="0" type="line"/>
      <point x="119" y="0" type="line"/>
      <point x="285" y="780" type="line"/>
      <point x="222" y="780" type="line"/>
    </contour>
    <contour>
      <point x="169" y="241" type="line"/>
      <point x="377" y="0" type="line"/>
      <point x="473" y="0" type="line" smooth="yes"/>
      <point x="272" y="221" type="line"/>
    </contour>
    <contour>
      <point x="186" y="391" type="curve"/>
      <point x="188" y="323" type="line"/>
      <point x="199" y="376"/>
      <point x="259" y="412"/>
      <point x="359" y="413" type="curve" smooth="yes"/>
      <point x="441" y="414"/>
      <point x="476" y="386"/>
      <point x="476" y="356" type="curve" smooth="yes"/>
      <point x="476" y="299"/>
      <point x="422" y="257"/>
      <point x="323" y="257" type="curve" smooth="yes"/>
      <point x="254" y="257"/>
      <point x="205" y="274"/>
      <point x="176" y="293" type="curve"/>
      <point x="167" y="247" type="line"/>
      <point x="189" y="208"/>
      <point x="245" y="181"/>
      <point x="297" y="181" type="curve" smooth="yes"/>
      <point x="472" y="181"/>
      <point x="555" y="277"/>
      <point x="555" y="413" type="curve" smooth="yes"/>
      <point x="555" y="500"/>
      <point x="495" y="560"/>
      <point x="392" y="560" type="curve" smooth="yes"/>
      <point x="288" y="560"/>
      <point x="218" y="499"/>
    </contour>
  </outline>
</glyph>
<glyph name="n" format="1">
  <advance width="520"/>
  <unicode hex="006E"/>
  <outline>
    <contour>
      <point x="464" y="0" type="line"/>
      <point x="529" y="310"/>
      <point x="540" y="371"/>
      <point x="541" y="409" type="curve"/>
      <point x="541" y="517"/>
      <point x="486" y="560"/>
      <point x="399" y="560" type="curve" smooth="yes"/>
      <point x="294" y="560"/>
      <point x="221" y="509"/>
      <point x="187" y="391" type="curve"/>
      <point x="202" y="387" type="line"/>
      <point x="236" y="550" type="line"/>
      <point x="173" y="550" type="line"/>
      <point x="56" y="0" type="line"/>
      <point x="119" y="0" type="line"/>
      <point x="190" y="332" type="line"/>
      <point x="165" y="256" type="line"/>
      <point x="206" y="361"/>
      <point x="263" y="389"/>
      <point x="358" y="389" type="curve" smooth="yes"/>
      <point x="420" y="389"/>
      <point x="460" y="356"/>
      <point x="460" y="299" type="curve"/>
      <point x="461" y="272"/>
      <point x="457" y="240"/>
      <point x="403" y="0" type="curve"/>
    </contour>
  </outline>
</glyph>
<glyph name="p" format="1">
  <advance width="520"/>
  <unicode hex="0070"/>
  <outline>
    <contour>
      <point x="290" y="108" type="curve" smooth="yes"/>
      <point x="226" y="109"/>
      <point x="172" y="137"/>
      <point x="159" y="189" type="curve"/>
      <point x="180" y="286" type="line"/>
      <point x="194" y="355"/>
      <point x="248" y="404"/>
      <point x="356" y="404" type="curve" smooth="yes"/>
      <point x="435" y="404"/>
      <point x="485" y="355"/>
      <point x="485" y="291" type="curve" smooth="yes"/>
      <point x="485" y="175"/>
      <point x="405" y="106"/>
    </contour>
    <contour>
      <point x="440" y="-10"/>
      <point x="553" y="141"/>
      <point x="553" y="367" type="curve" smooth="yes"/>
      <point x="553" y="495"/>
      <point x="486" y="560"/>
      <point x="396" y="560" type="curve" smooth="yes"/>
      <point x="309" y="560"/>
      <point x="222" y="514"/>
      <point x="184" y="394" type="curve"/>
      <point x="201" y="388" type="line"/>
      <point x="236" y="550" type="line"/>
      <point x="173" y="550" type="line"/>
      <point x="13" y="-200" type="line"/>
      <point x="76" y="-200" type="line"/>
      <point x="155" y="168" type="line"/>
      <point x="107" y="116" type="line"/>
      <point x="137" y="29"/>
      <point x="187" y="-10"/>
      <point x="269" y="-10" type="curve" smooth="yes"/>
    </contour>
  </outline>
</glyph>
<glyph name="q" format="1">
  <advance width="520"/>
  <unicode hex="0071"/>
  <outline>
    <contour>
      <point x="267" y="108" type="curve" smooth="yes"/>
      <point x="186" y="108"/>
      <point x="145" y="160"/>
      <point x="146" y="230" type="curve" smooth="yes"/>
      <point x="146" y="320"/>
      <point x="225" y="403"/>
      <point x="335" y="403" type="curve" smooth="yes"/>
      <point x="437" y="403"/>
      <point x="475" y="346"/>
      <point x="460" y="269" type="curve"/>
      <point x="434" y="155" type="line"/>
      <point x="462" y="223" type="line"/>
      <point x="418" y="136"/>
      <point x="345" y="108"/>
    </contour>
    <contour>
      <point x="206" y="560"/>
      <point x="83" y="398"/>
      <point x="83" y="192" type="curve" smooth="yes"/>
      <point x="83" y="67"/>
      <point x="149" y="-10"/>
      <point x="248" y="-10" type="curve" smooth="yes"/>
      <point x="338" y="-10"/>
      <point x="410" y="39"/>
      <point x="461" y="117" type="curve"/>
      <point x="436" y="167" type="line"/>
      <point x="358" y="-200" type="line"/>
      <point x="421" y="-200" type="line"/>
      <point x="581" y="550" type="line"/>
      <point x="518" y="550" type="line"/>
      <point x="483" y="388" type="line"/>
      <point x="502" y="394" type="line"/>
      <point x="516" y="513"/>
      <point x="438" y="560"/>
      <point x="363" y="560" type="curve" smooth="yes"/>
    </contour>
  </outline>
</glyph>
<glyph name="r" format="1">
  <advance width="420"/>
  <unicode hex="0072"/>
  <outline>
    <contour>
      <point x="248" y="285" type="line"/>
      <point x="263" y="355"/>
      <point x="306" y="394"/>
      <point x="354" y="394" type="curve" smooth="yes"/>
      <point x="397" y="394"/>
      <point x="419" y="383"/>
      <point x="424" y="357" type="curve"/>
      <point x="497" y="523" type="line"/>
      <point x="476" y="545"/>
      <point x="458" y="560"/>
      <point x="411" y="560" type="curve" smooth="yes"/>
      <point x="359" y="560"/>
      <point x="278" y="510"/>
      <point x="255" y="403" type="curve"/>
      <point x="271" y="403" type="line"/>
      <point x="283" y="463" type="line"/>
      <point x="264" y="550" type="line"/>
      <point x="163" y="550" type="line"/>
      <point x="126" y="377" type="line"/>
      <point x="204" y="377" type="line"/>
      <point x="124" y="0" type="line"/>
      <point x="187" y="0" type="line"/>
    </contour>
  </outline>
</glyph>
<glyph name="s" format="1">
  <advance width="520"/>
  <unicode hex="0073"/>
  <outline>
    <contour>
      <point x="373" y="560" type="curve" smooth="yes"/>
      <point x="231" y="560"/>
      <point x="147" y="477"/>
      <point x="147" y="371" type="curve" smooth="yes"/>
      <point x="147" y="295"/>
      <point x="198" y="258"/>
      <point x="303" y="236" type="curve" smooth="yes"/>
      <point x="378" y="220"/>
      <point x="414" y="197"/>
      <point x="414" y="174" type="curve" smooth="yes"/>
      <point x="414" y="141"/>
      <point x="382" y="118"/>
      <point x="290" y="118" type="curve" smooth="yes"/>
      <point x="190" y="118"/>
      <point x="139" y="152"/>
      <point x="117" y="193" type="curve"/>
      <point x="72" y="93" type="line"/>
      <point x="89" y="39"/>
      <point x="134" y="-10"/>
      <point x="250" y="-10" type="curve" smooth="yes"/>
      <point x="412" y="-10"/>
      <point x="488" y="55"/>
      <point x="488" y="167" type="curve" smooth="yes"/>
      <point x="488" y="240"/>
      <point x="440" y="285"/>
      <point x="324" y="308" type="curve" smooth="yes"/>
      <point x="247" y="323"/>
      <point x="215" y="346"/>
      <point x="215" y="368" type="curve" smooth="yes"/>
      <point x="215" y="408"/>
      <point x="255" y="427"/>
      <point x="332" y="427" type="curve" smooth="yes"/>
      <point x="416" y="427"/>
      <point x="473" y="400"/>
      <point x="493" y="367" type="curve"/>
      <point x="534" y="472" type="line"/>
      <point x="514" y="528"/>
      <point x="460" y="560"/>
    </contour>
  </outline>
</glyph>
<glyph name="t" format="1">
  <advance width="420"/>
  <unicode hex="0074"/>
  <outline>
    <contour>
      <point x="388" y="54" type="curve"/>
      <point x="384" y="155" type="line"/>
      <point x="364" y="137"/>
      <point x="328" y="123"/>
      <point x="287" y="124" type="curve" smooth="yes"/>
      <point x="240" y="125"/>
      <point x="212" y="150"/>
      <point x="228" y="222" type="curve" smooth="yes"/>
      <point x="263" y="384" type="line"/>
      <point x="407" y="384" type="line"/>
      <point x="440" y="540" type="line"/>
      <point x="296" y="540" type="line"/>
      <point x="323" y="670" type="line"/>
      <point x="260" y="670" type="line"/>
      <point x="233" y="540" type="line"/>
      <point x="155" y="540" type="line"/>
      <point x="122" y="384" type="line"/>
      <point x="199" y="384" type="line"/>
      <point x="150" y="153" type="line" smooth="yes"/>
      <point x="125" y="32"/>
      <point x="171" y="-10"/>
      <point x="247" y="-10" type="curve" smooth="yes"/>
      <point x="302" y="-10"/>
      <point x="362" y="14"/>
    </contour>
  </outline>
</glyph>
<glyph name="u" format="1">
  <advance width="520"/>
  <unicode hex="0075"/>
  <outline>
    <contour>
      <point x="170" y="550" type="line"/>
      <point x="106" y="247" type="line" smooth="yes"/>
      <point x="71" y="80"/>
      <point x="132" y="-10"/>
      <point x="230" y="-10" type="curve" smooth="yes"/>
      <point x="357" y="-10"/>
      <point x="432" y="55"/>
      <point x="448" y="159" type="curve"/>
      <point x="425" y="163" type="line"/>
      <point x="425" y="0" type="line"/>
      <point x="490" y="0" type="line"/>
      <point x="490" y="70"/>
      <point x="492" y="132"/>
      <point x="506" y="198" type="curve" smooth="yes"/>
      <point x="581" y="550" type="line"/>
      <point x="518" y="550" type="line"/>
      <point x="441" y="188" type="line"/>
      <point x="462" y="248" type="line"/>
      <point x="435" y="174"/>
      <point x="362" y="124"/>
      <point x="274" y="124" type="curve" smooth="yes"/>
      <point x="174" y="124"/>
      <point x="153" y="175"/>
      <point x="177" y="289" type="curve" smooth="yes"/>
      <point x="233" y="550" type="line"/>
    </contour>
  </outline>
</glyph>
<glyph name="v" format="1">
  <advance width="520"/>
  <unicode hex="0076"/>
  <outline>
    <contour>
      <point x="218" y="0" type="line"/>
      <point x="311" y="0" type="line"/>
      <point x="438" y="104"/>
      <point x="557" y="295"/>
      <point x="557" y="443" type="curve" smooth="yes"/>
      <point x="557" y="484"/>
      <point x="548" y="525"/>
      <point x="528" y="550" type="curve"/>
      <point x="405" y="550" type="line"/>
      <point x="432" y="519"/>
      <point x="441" y="483"/>
      <point x="441" y="442" type="curve" smooth="yes"/>
      <point x="441" y="313"/>
      <point x="370" y="195"/>
      <point x="260" y="106" type="curve"/>
      <point x="272" y="106" type="line"/>
      <point x="208" y="550" type="line"/>
      <point x="140" y="550" type="line"/>
    </contour>
  </outline>
</glyph>
<glyph name="y" format="1">
  <advance width="520"/>
  <unicode hex="0079"/>
  <outline>
    <contour>
      <point x="272" y="-21" type="line"/>
      <point x="363" y="58" type="line"/>
      <point x="239" y="550" type="line"/>
      <point x="139" y="550" type="line"/>
    </contour>
    <contour>
      <point x="108" y="-210" type="curve" smooth="yes"/>
      <point x="172" y="-210"/>
      <point x="225" y="-173"/>
      <point x="313" y="-41" type="curve" smooth="yes"/>
      <point x="467" y="190" type="line" smooth="yes"/>
      <point x="513" y="259"/>
      <point x="550" y="368"/>
      <point x="550" y="436" type="curve" smooth="yes"/>
      <point x="550" y="477"/>
      <point x="543" y="526"/>
      <point x="518" y="550" type="curve"/>
      <point x="442" y="550" type="line"/>
      <point x="469" y="520"/>
      <point x="480" y="476"/>
      <point x="480" y="414" type="curve" smooth="yes"/>
      <point x="480" y="361"/>
      <point x="447" y="280"/>
      <point x="419" y="235" type="curve" smooth="yes"/>
      <point x="298" y="44" type="line" smooth="yes"/>
      <point x="235" y="-55"/>
      <point x="185" y="-80"/>
      <point x="129" y="-80" type="curve" smooth="yes"/>
      <point x="88" y="-80"/>
      <point x="49" y="-61"/>
      <point x="32" y="-27" type="curve"/>
      <point x="-7" y="-113" type="line"/>
      <point x="-7" y="-170"/>
      <point x="54" y="-210"/>
    </contour>
  </outline>
</glyph>
<glyph name="exclamdown" format="1">
  <advance width="320"/>
  <unicode hex="00A1"/>
  <outline>
    <contour>
      <point x="127" y="88"/>
      <point x="56" y="15"/>
      <point x="56" y="-118" type="curve" smooth="yes"/>
      <point x="56" y="-158"/>
      <point x="69" y="-202"/>
      <point x="113" y="-202" type="curve"/>
      <point x="244" y="-202"/>
      <point x="235" y="-25"/>
      <point x="235" y="59" type="curve" smooth="yes"/>
      <point x="234" y="103"/>
      <point x="232" y="166"/>
      <point x="239" y="228" type="curve" smooth="yes"/>
      <point x="242" y="253"/>
      <point x="249" y="289"/>
      <point x="265" y="334" type="curve"/>
      <point x="195" y="334" type="line"/>
      <point x="190" y="289"/>
      <point x="180" y="254"/>
      <point x="171" y="228" type="curve" smooth="yes"/>
    </contour>
    <contour>
      <point x="220" y="556"/>
      <point x="192" y="529"/>
      <point x="192" y="489" type="curve"/>
      <point x="192" y="461"/>
      <point x="212" y="437"/>
      <point x="246" y="437" type="curve"/>
      <point x="298" y="437"/>
      <point x="325" y="469"/>
      <point x="325" y="506" type="curve" smooth="yes"/>
      <point x="325" y="533"/>
      <point x="304" y="556"/>
      <point x="268" y="556" type="curve" smooth="yes"/>
    </contour>
  </outline>
</glyph>
<glyph name="sterling" format="1">
  <advance width="670"/>
  <unicode hex="00A3"/>
  <outline>
    <contour>
      <point x="521" y="82" type="curve"/>
      <point x="528" y="184" type="line"/>
      <point x="496" y="153"/>
      <point x="449" y="134"/>
      <point x="385" y="135" type="curve"/>
      <point x="347" y="136"/>
      <point x="317" y="156"/>
      <point x="268" y="156" type="curve" smooth="yes"/>
      <point x="244" y="156"/>
      <point x="196" y="145"/>
      <point x="161" y="131" type="curve"/>
      <point x="242" y="171"/>
      <point x="310" y="264"/>
      <point x="310" y="331" type="curve" smooth="yes"/>
      <point x="309" y="398"/>
      <point x="234" y="413"/>
      <point x="234" y="475" type="curve" smooth="yes"/>
      <point x="234" y="515"/>
      <point x="279" y="566"/>
      <point x="392" y="566" type="curve" smooth="yes"/>
      <point x="460" y="566"/>
      <point x="537" y="534"/>
      <point x="564" y="496" type="curve"/>
      <point x="625" y="630" type="line"/>
      <point x="591" y="699"/>
      <point x="525" y="740"/>
      <point x="424" y="740" type="curve" smooth="yes"/>
      <point x="274" y="740"/>
      <point x="155" y="627"/>
      <point x="155" y="508" type="curve" smooth="yes"/>
      <point x="155" y="451"/>
      <point x="178" y="391"/>
      <point x="208" y="372" type="curve"/>
      <point x="208" y="288" type="line"/>
      <point x="198" y="242"/>
      <point x="153" y="175"/>
      <point x="38" y="102" type="curve"/>
      <point x="33" y="21" type="line"/>
      <point x="50" y="36"/>
      <point x="88" y="37"/>
      <point x="138" y="37" type="curve" smooth="yes"/>
      <point x="217" y="37"/>
      <point x="226" y="-10"/>
      <point x="331" y="-10" type="curve" smooth="yes"/>
      <point x="403" y="-9"/>
      <point x="487" y="24"/>
    </contour>
    <contour>
      <point x="440" y="288" type="line"/>
      <point x="459" y="379" type="line"/>
      <point x="93" y="379" type="line"/>
      <point x="74" y="288" type="line"/>
    </contour>
  </outline>
</glyph>
<glyph name="yen" format="1">
  <advance width="820"/>
  <unicode hex="00A5"/>
  <outline>
    <contour>
      <point x="189" y="266" type="line"/>
      <point x="575" y="266" type="line"/>
      <point x="592" y="347" type="line"/>
      <point x="206" y="347" type="line"/>
    </contour>
    <contour>
      <point x="160" y="126" type="line"/>
      <point x="546" y="126" type="line"/>
      <point x="563" y="207" type="line"/>
      <point x="177" y="207" type="line"/>
    </contour>
    <component base="Y" xOffset="10"/>
  </outline>
</glyph>
<glyph name="ordfeminine" format="1">
  <advance width="370"/>
  <unicode hex="00AA"/>
  <outline>
    <contour>
      <point x="294" y="367" type="line"/>
      <point x="322" y="367" type="line"/>
      <point x="322" y="575" type="line" smooth="yes"/>
      <point x="322" y="697"/>
      <point x="280" y="736"/>
      <point x="190" y="736" type="curve" smooth="yes"/>
      <point x="141" y="736"/>
      <point x="98" y="721"/>
      <point x="73" y="691" type="curve"/>
      <point x="76" y="606" type="line"/>
      <point x="93" y="627"/>
      <point x="127" y="645"/>
      <point x="183" y="645" type="curve" smooth="yes"/>
      <point x="249" y="645"/>
      <point x="279" y="615"/>
      <point x="279" y="544" type="curve"/>
      <point x="279" y="407" type="line"/>
    </contour>
    <contour>
      <point x="298" y="536" type="line"/>
      <point x="280" y="572"/>
      <point x="214" y="582"/>
      <point x="173" y="582" type="curve" smooth="yes"/>
      <point x="91" y="582"/>
      <point x="40" y="541"/>
      <point x="40" y="469" type="curve" smooth="yes"/>
      <point x="40" y="405"/>
      <point x="86" y="360"/>
      <point x="180" y="360" type="curve" smooth="yes"/>
      <point x="254" y="360"/>
      <point x="287" y="381"/>
      <point x="312" y="423" type="curve"/>
      <point x="294" y="479" type="line"/>
      <point x="279" y="445"/>
      <point x="234" y="431"/>
      <point x="180" y="431" type="curve" smooth="yes"/>
      <point x="130" y="431"/>
      <point x="91" y="454"/>
      <point x="91" y="481" type="curve" smooth="yes"/>
      <point x="91" y="514"/>
      <point x="123" y="533"/>
      <point x="185" y="533" type="curve" smooth="yes"/>
      <point x="229" y="533"/>
      <point x="263" y="522"/>
      <point x="294" y="493" type="curve"/>
    </contour>
  </outline>
</glyph>
<glyph name="logicalnot" format="1">
  <advance width="520"/>
  <unicode hex="00AC"/>
  <outline>
    <contour>
      <point x="485" y="170" type="line"/>
      <point x="554" y="495" type="line"/>
      <point x="176" y="495" type="line"/>
      <point x="149" y="366" type="line"/>
      <point x="452" y="366" type="line"/>
      <point x="410" y="170" type="line"/>
    </contour>
  </outline>
</glyph>
<glyph name="macron" format="1">
  <advance width="520"/>
  <unicode hex="00AF"/>
  <outline>
    <contour>
      <point x="573" y="651" type="line"/>
      <point x="594" y="750" type="line"/>
      <point x="245" y="750" type="line"/>
      <point x="224" y="651" type="line"/>
    </contour>
  </outline>
</glyph>
<glyph name="degree" format="1">
  <advance width="320"/>
  <unicode hex="00B0"/>
  <outline>
    <contour>
      <point x="280" y="625" type="curve"/>
      <point x="279" y="715"/>
      <point x="221" y="754"/>
      <point x="159" y="754" type="curve" smooth="yes"/>
      <point x="91" y="754"/>
      <point x="41" y="714"/>
      <point x="40" y="625" type="curve"/>
      <point x="41" y="535"/>
      <point x="99" y="496"/>
      <point x="161" y="496" type="curve" smooth="yes"/>
      <point x="229" y="496"/>
      <point x="279" y="536"/>
    </contour>
    <contour>
      <point x="238" y="625" type="curve"/>
      <point x="236" y="572"/>
      <point x="201" y="558"/>
      <point x="161" y="558" type="curve" smooth="yes"/>
      <point x="119" y="558"/>
      <point x="84" y="578"/>
      <point x="83" y="625" type="curve"/>
      <point x="84" y="670"/>
      <point x="119" y="682"/>
      <point x="159" y="682" type="curve" smooth="yes"/>
      <point x="201" y="682"/>
      <point x="236" y="665"/>
    </contour>
  </outline>
</glyph>
<glyph name="acute" format="1">
  <advance width="520"/>
  <unicode hex="00B4"/>
  <outline>
    <contour>
      <point x="250" y="613" type="line"/>
      <point x="315" y="675"/>
      <point x="447" y="693"/>
      <point x="515" y="654" type="curve"/>
      <point x="547" y="780" type="line"/>
      <point x="447" y="801"/>
      <point x="299" y="738"/>
      <point x="243" y="635" type="curve"/>
    </contour>
  </outline>
</glyph>
<glyph name="paragraph" format="1">
  <advance width="620"/>
  <unicode hex="00B6"/>
  <outline>
    <contour>
      <point x="591" y="593" type="line"/>
      <point x="467" y="0" type="line"/>
      <point x="535" y="0" type="line"/>
      <point x="691" y="750" type="line"/>
      <point x="487" y="750" type="line"/>
      <point x="295" y="750"/>
      <point x="148" y="630"/>
      <point x="148" y="467" type="curve" smooth="yes"/>
      <point x="147" y="353"/>
      <point x="235" y="270"/>
      <point x="388" y="270" type="curve"/>
      <point x="331" y="0" type="line"/>
      <point x="399" y="0" type="line"/>
      <point x="523" y="593" type="line"/>
    </contour>
  </outline>
</glyph>
<glyph name="ordmasculine" format="1">
  <advance width="370"/>
  <unicode hex="00BA"/>
  <outline>
    <contour>
      <point x="185" y="437" type="curve"/>
      <point x="124" y="437"/>
      <point x="72" y="463"/>
      <point x="73" y="541" type="curve" smooth="yes"/>
      <point x="74" y="594"/>
      <point x="111" y="632"/>
      <point x="185" y="632" type="curve"/>
      <point x="260" y="632"/>
      <point x="296" y="594"/>
      <point x="297" y="541" type="curve" smooth="yes"/>
      <point x="298" y="463"/>
      <point x="246" y="437"/>
    </contour>
    <contour>
      <point x="185" y="360" type="curve"/>
      <point x="273" y="360"/>
      <point x="338" y="415"/>
      <point x="338" y="541" type="curve" smooth="yes"/>
      <point x="338" y="682"/>
      <point x="275" y="736"/>
      <point x="185" y="736" type="curve"/>
      <point x="95" y="736"/>
      <point x="32" y="682"/>
      <point x="32" y="541" type="curve" smooth="yes"/>
      <point x="32" y="415"/>
      <point x="97" y="360"/>
    </contour>
  </outline>
</glyph>
<glyph name="questiondown" format="1">
  <advance width="520"/>
  <unicode hex="00BF"/>
  <outline>
    <contour>
      <point x="260" y="219" type="curve" smooth="yes"/>
      <point x="137" y="203"/>
      <point x="44" y="97"/>
      <point x="44" y="-31" type="curve" smooth="yes"/>
      <point x="44" y="-132"/>
      <point x="106" y="-210"/>
      <point x="217" y="-210" type="curve" smooth="yes"/>
      <point x="338" y="-210"/>
      <point x="422" y="-154"/>
      <point x="472" y="-43" type="curve"/>
      <point x="426" y="16" type="line"/>
      <point x="391" y="-32"/>
      <point x="329" y="-57"/>
      <point x="249" y="-57" type="curve" smooth="yes"/>
      <point x="139" y="-57"/>
      <point x="109" y="-12"/>
      <point x="110" y="21" type="curve" smooth="yes"/>
      <point x="110" y="63"/>
      <point x="142" y="81"/>
      <point x="242" y="92" type="curve" smooth="yes"/>
      <point x="355" y="105"/>
      <point x="438" y="154"/>
      <point x="438" y="270" type="curve" smooth="yes"/>
      <point x="437" y="298"/>
      <point x="427" y="339"/>
      <point x="414" y="362" type="curve"/>
      <point x="363" y="354" type="line"/>
      <point x="368" y="336"/>
      <point x="373" y="313"/>
      <point x="373" y="295" type="curve" smooth="yes"/>
      <point x="373" y="230"/>
      <point x="307" y="226"/>
    </contour>
    <contour>
      <point x="351" y="553"/>
      <point x="320" y="522"/>
      <point x="320" y="486" type="curve" smooth="yes"/>
      <point x="320" y="453"/>
      <point x="340" y="427"/>
      <point x="373" y="427" type="curve" smooth="yes"/>
      <point x="424" y="427"/>
      <point x="459" y="447"/>
      <point x="459" y="501" type="curve" smooth="yes"/>
      <point x="459" y="529"/>
      <point x="438" y="553"/>
      <point x="399" y="553" type="curve" smooth="yes"/>
    </contour>
  </outline>
</glyph>
<glyph name="AE" format="1">
  <advance width="920"/>
  <unicode hex="00C6"/>
  <outline>
    <contour>
      <point x="430" y="0" type="line"/>
      <point x="825" y="0" type="line"/>
      <point x="853" y="131" type="line"/>
      <point x="527" y="131" type="line"/>
      <point x="565" y="312" type="line"/>
      <point x="798" y="312" type="line"/>
      <point x="817" y="398" type="line"/>
      <point x="584" y="398" type="line"/>
      <point x="616" y="551" type="line"/>
      <point x="937" y="551" type="line"/>
      <point x="975" y="730" type="line"/>
      <point x="585" y="730" type="line"/>
    </contour>
    <contour>
      <point x="243" y="202" type="line"/>
      <point x="498" y="202" type="line"/>
      <point x="512" y="268" type="line"/>
      <point x="257" y="268" type="line"/>
    </contour>
    <contour>
      <point x="595" y="730" type="line"/>
      <point x="420" y="730" type="line"/>
      <point x="15" y="0" type="line"/>
      <point x="133" y="0" type="line"/>
      <point x="465" y="556" type="line"/>
      <point x="555" y="556" type="line"/>
    </contour>
  </outline>
</glyph>
<glyph name="Eth" format="1">
  <advance width="670"/>
  <unicode hex="00D0"/>
  <outline>
    <contour>
      <point x="420" y="292" type="line"/>
      <point x="444" y="403" type="line"/>
      <point x="88" y="403" type="line"/>
      <point x="64" y="292" type="line"/>
    </contour>
    <component base="D" xOffset="10"/>
  </outline>
</glyph>
<glyph name="Thorn" format="1">
  <advance width="620"/>
  <unicode hex="00DE"/>
  <outline>
    <contour>
      <point x="314" y="150" type="line"/>
      <point x="507" y="150"/>
      <point x="612" y="265"/>
      <point x="612" y="429" type="curve" smooth="yes"/>
      <point x="612" y="545"/>
      <point x="542" y="618"/>
      <point x="415" y="618" type="curve"/>
      <point x="265" y="618" type="line"/>
      <point x="289" y="730" type="line"/>
      <point x="220" y="730" type="line"/>
      <point x="65" y="0" type="line"/>
      <point x="134" y="0" type="line"/>
      <point x="166" y="150" type="line"/>
    </contour>
    <contour>
      <point x="392" y="286" type="curve"/>
      <point x="195" y="286" type="line"/>
      <point x="231" y="458" type="line"/>
      <point x="429" y="458" type="line"/>
      <point x="505" y="458"/>
      <point x="546" y="424"/>
      <point x="546" y="383" type="curve" smooth="yes"/>
      <point x="546" y="327"/>
      <point x="493" y="286"/>
    </contour>
  </outline>
</glyph>
<glyph name="ae" format="1">
  <advance width="920"/>
  <unicode hex="00E6"/>
  <outline>
    <contour>
      <point x="562" y="402" type="line"/>
      <point x="563" y="504"/>
      <point x="512" y="560"/>
      <point x="410" y="560" type="curve" smooth="yes"/>
      <point x="337" y="560"/>
      <point x="268" y="537"/>
      <point x="224" y="492" type="curve"/>
      <point x="201" y="368" type="line"/>
      <point x="231" y="405"/>
      <point x="280" y="422"/>
      <point x="373" y="422" type="curve" smooth="yes"/>
      <point x="470" y="422"/>
      <point x="501" y="377"/>
      <point x="478" y="269" type="curve"/>
    </contour>
    <contour>
      <point x="503" y="257" type="line"/>
      <point x="488" y="311"/>
      <point x="394" y="327"/>
      <point x="334" y="327" type="curve" smooth="yes"/>
      <point x="200" y="327"/>
      <point x="99" y="259"/>
      <point x="99" y="136" type="curve" smooth="yes"/>
      <point x="99" y="60"/>
      <point x="153" y="-10"/>
      <point x="272" y="-10" type="curve" smooth="yes"/>
      <point x="382" y="-10"/>
      <point x="437" y="22"/>
      <point x="487" y="85" type="curve"/>
      <point x="479" y="170" type="line"/>
      <point x="446" y="119"/>
      <point x="375" y="95"/>
      <point x="296" y="95" type="curve" smooth="yes"/>
      <point x="227" y="95"/>
      <point x="182" y="138"/>
      <point x="182" y="175" type="curve" smooth="yes"/>
      <point x="182" y="215"/>
      <point x="231" y="256"/>
      <point x="337" y="256" type="curve" smooth="yes"/>
      <point x="402" y="256"/>
      <point x="446" y="235"/>
      <point x="483" y="191" type="curve"/>
    </contour>
    <component base="e" xOffset="389"/>
  </outline>
</glyph>
<glyph name="eth" format="1">
  <advance width="520"/>
  <unicode hex="00F0"/>
  <outline>
    <contour>
      <point x="402" y="587" type="line"/>
      <point x="619" y="668" type="line"/>
      <point x="608" y="730" type="line"/>
      <point x="391" y="649" type="line"/>
    </contour>
    <contour>
      <point x="260" y="-10" type="curve" smooth="yes"/>
      <point x="456" y="-10"/>
      <point x="573" y="172"/>
      <point x="573" y="474" type="curve" smooth="yes"/>
      <point x="573" y="645"/>
      <point x="509" y="764"/>
      <point x="413" y="780" type="curve"/>
      <point x="389" y="703" type="line"/>
      <point x="457" y="695"/>
      <point x="505" y="614"/>
      <point x="506" y="493" type="curve" smooth="yes"/>
      <point x="506" y="486"/>
      <point x="511" y="519"/>
      <point x="512" y="511" type="curve"/>
      <point x="495" y="538"/>
      <point x="441" y="560"/>
      <point x="384" y="560" type="curve" smooth="yes"/>
      <point x="186" y="560"/>
      <point x="84" y="397"/>
      <point x="84" y="202" type="curve" smooth="yes"/>
      <point x="84" y="72"/>
      <point x="149" y="-10"/>
    </contour>
    <contour>
      <point x="285" y="107" type="curve" smooth="yes"/>
      <point x="197" y="107"/>
      <point x="147" y="155"/>
      <point x="146" y="231" type="curve" smooth="yes"/>
      <point x="146" y="308"/>
      <point x="211" y="402"/>
      <point x="347" y="402" type="curve" smooth="yes"/>
      <point x="443" y="402"/>
      <point x="487" y="346"/>
      <point x="487" y="284" type="curve" smooth="yes"/>
      <point x="487" y="174"/>
      <point x="403" y="107"/>
    </contour>
  </outline>
</glyph>
<glyph name="divide" format="1">
  <advance width="520"/>
  <unicode hex="00F7"/>
  <outline>
    <contour>
      <point x="315" y="84"/>
      <point x="348" y="113"/>
      <point x="348" y="158" type="curve"/>
      <point x="348" y="191"/>
      <point x="323" y="217"/>
      <point x="288" y="217" type="curve"/>
      <point x="227" y="217"/>
      <point x="195" y="181"/>
      <point x="195" y="137" type="curve" smooth="yes"/>
      <point x="195" y="109"/>
      <point x="222" y="84"/>
      <point x="260" y="84" type="curve" smooth="yes"/>
    </contour>
    <contour>
      <point x="375" y="421"/>
      <point x="408" y="450"/>
      <point x="408" y="495" type="curve"/>
      <point x="408" y="528"/>
      <point x="383" y="554"/>
      <point x="348" y="554" type="curve"/>
      <point x="287" y="554"/>
      <point x="255" y="518"/>
      <point x="255" y="474" type="curve" smooth="yes"/>
      <point x="255" y="446"/>
      <point x="282" y="421"/>
      <point x="320" y="421" type="curve" smooth="yes"/>
    </contour>
    <component base="minus" xOffset="10"/>
  </outline>
</glyph>
<glyph name="gcommaaccent" format="1">
  <advance width="520"/>
  <unicode hex="0123"/>
  <outline>
    <contour>
      <point x="544.0" y="740.0" type="line"/>
      <point x="472.786407679" y="690.667802983"/>
      <point x="434.0" y="656.213753388"/>
      <point x="434.0" y="600.0" type="curve"/>
      <point x="311.0" y="600.0" type="line"/>
      <point x="311.0" y="682.160035417"/>
      <point x="390.006868066" y="726.784716184"/>
      <point x="528.0" y="754.0" type="curve"/>
    </contour>
    <component base="g" xOffset="10"/>
  </outline>
</glyph>
<glyph name="Hbar" format="1">
  <advance width="670"/>
  <unicode hex="0126"/>
  <outline>
    <contour>
      <point x="771" y="540" type="line"/>
      <point x="787" y="614" type="line"/>
      <point x="146" y="614" type="line"/>
      <point x="130" y="540" type="line"/>
    </contour>
    <component base="H" xOffset="10"/>
  </outline>
</glyph>
<glyph name="dotlessi" format="1">
  <advance width="320"/>
  <unicode hex="0131"/>
  <outline>
    <contour>
      <point x="158" y="0" type="line"/>
      <point x="221" y="0" type="line"/>
      <point x="333" y="539" type="line"/>
      <point x="150" y="539" type="line"/>
      <point x="113" y="369" type="line"/>
      <point x="234" y="369" type="line"/>
    </contour>
  </outline>
</glyph>
<glyph name="IJ" format="1">
  <advance width="770"/>
  <unicode hex="0132"/>
  <outline>
    <contour>
      <point x="336" y="0" type="line"/>
      <point x="366" y="141" type="line"/>
      <point x="297" y="141" type="line"/>
      <point x="384" y="550" type="line"/>
      <point x="483" y="550" type="line"/>
      <point x="521" y="730" type="line"/>
      <point x="216" y="730" type="line"/>
      <point x="178" y="550" type="line"/>
      <point x="314" y="550" type="line"/>
      <point x="227" y="141" type="line"/>
      <point x="85" y="141" type="line"/>
      <point x="55" y="0" type="line"/>
    </contour>
    <contour>
      <point x="543" y="-10" type="curve" smooth="yes"/>
      <point x="656" y="-10"/>
      <point x="726" y="71"/>
      <point x="769" y="276" type="curve"/>
      <point x="865" y="730" type="line"/>
      <point x="592" y="730" type="line"/>
      <point x="555" y="555" type="line"/>
      <point x="759" y="555" type="line"/>
      <point x="708" y="306" type="line"/>
      <point x="681" y="183"/>
      <point x="628" y="129"/>
      <point x="560" y="129" type="curve" smooth="yes"/>
      <point x="518" y="129"/>
      <point x="474" y="140"/>
      <point x="444" y="159" type="curve"/>
      <point x="414" y="18" type="line"/>
      <point x="439" y="-2"/>
      <point x="491" y="-10"/>
    </contour>
  </outline>
</glyph>
<glyph name="kgreenlandic" format="1">
  <advance width="520"/>
  <unicode hex="0138"/>
  <outline>
    <contour>
      <point x="56" y="0" type="line"/>
      <point x="119" y="0" type="line"/>
      <point x="236" y="550" type="line"/>
      <point x="173" y="550" type="line"/>
    </contour>
    <contour>
      <point x="244" y="309" type="line"/>
      <point x="408" y="0" type="line"/>
      <point x="488" y="0" type="line" smooth="yes"/>
      <point x="293" y="373" type="line"/>
    </contour>
    <contour>
      <point x="411" y="550" type="line"/>
      <point x="140" y="286" type="line"/>
      <point x="101" y="104" type="line"/>
      <point x="586" y="550" type="line"/>
    </contour>
  </outline>
</glyph>
<glyph name="Lslash" format="1">
  <advance width="470"/>
  <unicode hex="0141"/>
  <outline>
    <contour>
      <point x="384" y="404" type="line"/>
      <point x="411" y="530" type="line"/>
      <point x="54" y="397" type="line"/>
      <point x="27" y="271" type="line"/>
    </contour>
    <component base="L" xOffset="10"/>
  </outline>
</glyph>
<glyph name="Eng" format="1">
  <advance width="720"/>
  <unicode hex="014A"/>
  <outline>
    <contour>
      <point x="349" y="-211" type="line"/>
      <point x="520" y="-231"/>
      <point x="604" y="-145"/>
      <point x="640" y="23" type="curve"/>
      <point x="486" y="23" type="line"/>
      <point x="524" y="-78"/>
      <point x="443" y="-142"/>
      <point x="381" y="-132" type="curve"/>
    </contour>
    <component base="N" xOffset="10"/>
  </outline>
</glyph>
<glyph name="eng" format="1">
  <advance width="520"/>
  <unicode hex="014B"/>
  <outline>
    <contour>
      <point x="450" y="-67" type="curve" smooth="yes"/>
      <point x="466" y="10" type="line"/>
      <point x="405" y="10" type="line"/>
      <point x="383" y="-58"/>
      <point x="360" y="-78"/>
      <point x="312" y="-80" type="curve"/>
      <point x="304" y="-210" type="line"/>
      <point x="378" y="-210"/>
      <point x="431" y="-159"/>
    </contour>
    <component base="n" xOffset="10"/>
  </outline>
</glyph>
<glyph name="Schwa" format="1">
  <advance width="670"/>
  <unicode hex="018F"/>
  <outline>
    <contour>
      <point x="652" y="219"/>
      <point x="532" y="130"/>
      <point x="371" y="130" type="curve" smooth="yes"/>
      <point x="244" y="130"/>
      <point x="176" y="196"/>
      <point x="175" y="275" type="curve" smooth="yes"/>
      <point x="175" y="288"/>
      <point x="176" y="302"/>
      <point x="179" y="316" type="curve"/>
      <point x="655" y="316" type="line"/>
      <point x="672" y="397" type="line"/>
      <point x="133" y="397" type="line"/>
      <point x="117" y="331"/>
      <point x="109" y="289"/>
      <point x="109" y="245" type="curve"/>
      <point x="109" y="84"/>
      <point x="192" y="-10"/>
      <point x="333" y="-10" type="curve" smooth="yes"/>
      <point x="547" y="-10"/>
      <point x="718" y="161"/>
      <point x="718" y="467" type="curve" smooth="yes"/>
      <point x="718" y="619"/>
      <point x="631" y="741"/>
      <point x="488" y="741" type="curve" smooth="yes"/>
      <point x="354" y="741"/>
      <point x="241" y="658"/>
      <point x="193" y="552" type="curve"/>
      <point x="239" y="486" type="line"/>
      <point x="285" y="547"/>
      <point x="369" y="586"/>
      <point x="459" y="583" type="curve" smooth="yes"/>
      <point x="588" y="579"/>
      <point x="652" y="512"/>
      <point x="652" y="416" type="curve" smooth="yes"/>
    </contour>
  </outline>
</glyph>
<glyph name="dotaccent" format="1">
  <advance width="520"/>
  <unicode hex="02D9"/>
  <outline>
    <contour>
      <point x="460" y="660"/>
      <point x="496" y="694"/>
      <point x="496" y="736" type="curve" smooth="yes"/>
      <point x="496" y="775"/>
      <point x="473" y="804"/>
      <point x="435" y="804" type="curve" smooth="yes"/>
      <point x="375" y="804"/>
      <point x="335" y="781"/>
      <point x="335" y="718" type="curve" smooth="yes"/>
      <point x="335" y="687"/>
      <point x="359" y="660"/>
      <point x="406" y="660" type="curve" smooth="yes"/>
    </contour>
  </outline>
</glyph>
<glyph name="hungarumlaut" format="1">
  <advance width="520"/>
  <unicode hex="02DD"/>
  <outline>
    <contour>
      <point x="292" y="606" type="line"/>
      <point x="318" y="679"/>
      <point x="381" y="726"/>
      <point x="435" y="737" type="curve"/>
      <point x="434" y="795" type="line"/>
      <point x="328" y="794"/>
      <point x="271" y="724"/>
      <point x="261" y="609" type="curve"/>
    </contour>
    <contour>
      <point x="468" y="606" type="line"/>
      <point x="496" y="680"/>
      <point x="557" y="726"/>
      <point x="612" y="737" type="curve"/>
      <point x="610" y="795" type="line"/>
      <point x="504" y="795"/>
      <point x="448" y="724"/>
      <point x="437" y="609" type="curve"/>
    </contour>
  </outline>
</glyph>
<glyph name="Omega" format="1">
  <advance width="670"/>
  <unicode hex="03A9"/>
  <outline>
    <contour>
      <point x="400" y="0" type="line"/>
      <point x="649" y="0" type="line"/>
      <point x="676" y="126" type="line"/>
      <point x="557" y="116" type="line"/>
      <point x="427" y="126" type="line"/>
    </contour>
    <contour>
      <point x="43" y="0" type="line"/>
      <point x="299" y="0" type="line"/>
      <point x="326" y="126" type="line"/>
      <point x="196" y="116" type="line"/>
      <point x="70" y="126" type="line"/>
    </contour>
    <contour>
      <point x="326" y="126" type="line"/>
      <point x="240" y="139"/>
      <point x="175" y="212"/>
      <point x="174" y="325" type="curve" smooth="yes"/>
      <point x="173" y="441"/>
      <point x="258" y="544"/>
      <point x="442" y="544" type="curve"/>
      <point x="573" y="544"/>
      <point x="646" y="460"/>
      <point x="646" y="370" type="curve" smooth="yes"/>
      <point x="646" y="240"/>
      <point x="546" y="128"/>
      <point x="427" y="126" type="curve"/>
      <point x="410" y="45" type="line"/>
      <point x="572" y="49"/>
      <point x="719" y="202"/>
      <point x="719" y="470" type="curve" smooth="yes"/>
      <point x="719" y="632"/>
      <point x="618" y="740"/>
      <point x="484" y="740" type="curve"/>
      <point x="273" y="740"/>
      <point x="107" y="566"/>
      <point x="107" y="255" type="curve" smooth="yes"/>
      <point x="107" y="147"/>
      <point x="185" y="58"/>
      <point x="300" y="43" type="curve"/>
    </contour>
  </outline>
</glyph>
<glyph name="pi" format="1">
  <advance width="520"/>
  <unicode hex="03C0"/>
  <outline>
    <contour>
      <point x="160" y="490" type="line"/>
      <point x="56" y="0" type="line"/>
      <point x="119" y="0" type="line"/>
      <point x="223" y="490" type="line"/>
    </contour>
    <contour>
      <point x="549" y="391" type="line"/>
      <point x="583" y="550" type="line"/>
      <point x="112" y="550" type="line"/>
      <point x="78" y="391" type="line"/>
    </contour>
    <contour>
      <point x="459" y="-10" type="curve"/>
      <point x="505" y="120" type="line"/>
      <point x="460" y="122"/>
      <point x="435" y="142"/>
      <point x="449" y="211" type="curve"/>
      <point x="508" y="487" type="line"/>
      <point x="448" y="487" type="line"/>
      <point x="372" y="133" type="line" smooth="yes"/>
      <point x="352" y="41"/>
      <point x="383" y="-10"/>
    </contour>
  </outline>
</glyph>
<glyph name="Germandbls" format="1">
  <advance width="670"/>
  <unicode hex="1E9E"/>
  <outline>
    <contour>
      <point x="469" y="351" type="line"/>
      <point x="627" y="501" type="line"/>
      <point x="633" y="527"/>
      <point x="635" y="552"/>
      <point x="635" y="574" type="curve" smooth="yes"/>
      <point x="635" y="675"/>
      <point x="577" y="730"/>
      <point x="476" y="730" type="curve"/>
      <point x="240" y="730" type="line"/>
      <point x="85" y="0" type="line"/>
      <point x="153" y="0" type="line"/>
      <point x="274" y="571" type="line" smooth="yes"/>
      <point x="478" y="571" type="line"/>
      <point x="543" y="571"/>
      <point x="570" y="539"/>
      <point x="561" y="500" type="curve"/>
      <point x="441" y="387" type="line"/>
    </contour>
    <contour>
      <point x="367" y="-10" type="curve" smooth="yes"/>
      <point x="523" y="-10"/>
      <point x="618" y="96"/>
      <point x="618" y="239" type="curve" smooth="yes"/>
      <point x="618" y="341"/>
      <point x="548" y="410"/>
      <point x="475" y="410" type="curve"/>
      <point x="297" y="410" type="line"/>
      <point x="278" y="324" type="line"/>
      <point x="447" y="324" type="line"/>
      <point x="520" y="324"/>
      <point x="560" y="281"/>
      <point x="560" y="232" type="curve" smooth="yes"/>
      <point x="560" y="164"/>
      <point x="507" y="115"/>
      <point x="384" y="115" type="curve"/>
      <point x="314" y="115"/>
      <point x="284" y="140"/>
      <point x="279" y="168" type="curve"/>
      <point x="223" y="158" type="line"/>
      <point x="221" y="147"/>
      <point x="220" y="137"/>
      <point x="220" y="127" type="curve" smooth="yes"/>
      <point x="220" y="45"/>
      <point x="279" y="-10"/>
    </contour>
  </outline>
</glyph>
<glyph name="emdash" format="1">
  <advance width="820"/>
  <unicode hex="2014"/>
  <outline>
    <contour>
      <point x="829" y="256" type="line"/>
      <point x="845" y="330" type="line"/>
      <point x="115" y="330" type="line"/>
      <point x="99" y="256" type="line"/>
    </contour>
    <component base="emspace" xOffset="10"/>
    <component base="emspace" xOffset="10"/>
  </outline>
</glyph>
<glyph name="quoteright" format="1">
  <advance width="220"/>
  <unicode hex="2019"/>
  <outline>
    <contour>
      <point x="135" y="467" type="curve"/>
      <point x="152" y="453" type="line"/>
      <point x="259" y="485"/>
      <point x="337" y="632"/>
      <point x="337" y="750" type="curve"/>
      <point x="214" y="750" type="line"/>
      <point x="241" y="666"/>
      <point x="205" y="521"/>
    </contour>
  </outline>
</glyph>
<glyph name="daggerdbl" format="1">
  <advance width="420"/>
  <unicode hex="2021"/>
  <outline>
    <contour>
      <point x="447" y="730" type="line"/>
      <point x="355" y="593" type="line"/>
      <point x="491" y="630" type="line"/>
      <point x="464" y="503" type="line"/>
      <point x="344" y="542" type="line"/>
      <point x="318" y="445"/>
      <point x="339" y="378"/>
      <point x="383" y="365" type="curve"/>
      <point x="190" y="365" type="line"/>
      <point x="241" y="378"/>
      <point x="288" y="445"/>
      <point x="305" y="542" type="curve"/>
      <point x="168" y="503" type="line"/>
      <point x="195" y="630" type="line"/>
      <point x="315" y="593" type="line"/>
      <point x="284" y="730" type="line"/>
    </contour>
    <contour>
      <point x="291" y="0" type="line"/>
      <point x="128" y="0" type="line"/>
      <point x="219" y="137" type="line"/>
      <point x="83" y="100" type="line"/>
      <point x="110" y="227" type="line"/>
      <point x="229" y="188" type="line"/>
      <point x="254" y="285"/>
      <point x="235" y="352"/>
      <point x="190" y="365" type="curve"/>
      <point x="383" y="365" type="line"/>
      <point x="333" y="352"/>
      <point x="284" y="285"/>
      <point x="268" y="188" type="curve"/>
      <point x="406" y="227" type="line"/>
      <point x="379" y="100" type="line"/>
      <point x="259" y="137" type="line"/>
    </contour>
  </outline>
</glyph>
<glyph name="bullet" format="1">
  <advance width="370"/>
  <unicode hex="2022"/>
  <outline>
    <contour>
      <point x="302" y="178"/>
      <point x="351" y="223"/>
      <point x="351" y="285" type="curve"/>
      <point x="351" y="336"/>
      <point x="317" y="377"/>
      <point x="261" y="377" type="curve"/>
      <point x="174" y="377"/>
      <point x="126" y="324"/>
      <point x="126" y="258" type="curve" smooth="yes"/>
      <point x="126" y="217"/>
      <point x="163" y="178"/>
      <point x="221" y="178" type="curve" smooth="yes"/>
    </contour>
  </outline>
</glyph>
<glyph name="euro" format="1">
  <advance width="770"/>
  <unicode hex="20AC"/>
  <outline>
    <contour>
      <point x="428" y="363" type="line"/>
      <point x="445" y="444" type="line"/>
      <point x="69" y="444" type="line"/>
      <point x="52" y="363" type="line"/>
    </contour>
    <contour>
      <point x="399" y="223" type="line"/>
      <point x="416" y="304" type="line"/>
      <point x="40" y="304" type="line"/>
      <point x="23" y="223" type="line"/>
    </contour>
    <component base="C" xOffset="10"/>
  </outline>
</glyph>
<glyph name="arrowright" format="1">
  <advance width="720"/>
  <unicode hex="2192"/>
  <outline>
    <contour>
      <point x="88.0" y="416.0" type="line"/>
      <point x="168.0" y="295.0" type="line"/>
      <point x="88.0" y="175.0" type="line"/>
      <point x="434.0" y="175.0" type="line"/>
      <point x="475.0" y="175.0"/>
      <point x="539.0" y="212.0"/>
      <point x="569.0" y="247.0" type="curve"/>
      <point x="569.0" y="78.0" type="line"/>
      <point x="782.0" y="295.0" type="line"/>
      <point x="569.0" y="513.0" type="line"/>
      <point x="569.0" y="344.0" type="line"/>
      <point x="536.0" y="379.0"/>
      <point x="475.0" y="416.0"/>
      <point x="425.0" y="416.0" type="curve"/>
    </contour>
  </outline>
</glyph>
<glyph name="approxequal" format="1">
  <advance width="520"/>
  <unicode hex="2248"/>
  <outline>
    <contour>
      <point x="364" y="487" type="curve" smooth="yes"/>
      <point x="290" y="519"/>
      <point x="188" y="497"/>
      <point x="146" y="420" type="curve"/>
      <point x="144" y="377" type="line"/>
      <point x="170" y="402"/>
      <point x="268" y="424"/>
      <point x="339" y="386" type="curve" smooth="yes"/>
      <point x="395" y="357"/>
      <point x="508" y="372"/>
      <point x="559" y="458" type="curve"/>
      <point x="561" y="501" type="line"/>
      <point x="538" y="480"/>
      <point x="430" y="458"/>
    </contour>
    <contour>
      <point x="319" y="275" type="curve" smooth="yes"/>
      <point x="245" y="307"/>
      <point x="143" y="285"/>
      <point x="101" y="208" type="curve"/>
      <point x="99" y="165" type="line"/>
      <point x="125" y="190"/>
      <point x="222" y="212"/>
      <point x="294" y="174" type="curve" smooth="yes"/>
      <point x="350" y="145"/>
      <point x="462" y="160"/>
      <point x="514" y="246" type="curve"/>
      <point x="516" y="289" type="line"/>
      <point x="493" y="268"/>
      <point x="385" y="246"/>
    </contour>
  </outline>
</glyph>
<glyph name="lessequal" format="1">
  <advance width="520"/>
  <unicode hex="2264"/>
  <outline>
    <contour>
      <point x="461" y="58" type="line"/>
      <point x="485" y="167" type="line"/>
      <point x="107" y="167" type="line"/>
      <point x="83" y="58" type="line"/>
    </contour>
    <contour>
      <point x="166" y="357" type="line"/>
      <point x="492" y="203" type="line"/>
      <point x="516" y="316" type="line"/>
      <point x="225" y="403" type="line"/>
      <point x="558" y="510" type="line"/>
      <point x="580" y="637" type="line"/>
      <point x="185" y="447" type="line"/>
    </contour>
  </outline>
</glyph>
<glyph name="poingdroite" format="1">
  <advance width="870"/>
  <unicode hex="261B"/>
  <outline>
    <contour>
      <point x="587.0" y="139.0"/>
      <point x="630.0" y="97.0"/>
      <point x="735.0" y="97.0" type="curve" smooth="yes"/>
      <point x="840.0" y="97.0"/>
      <point x="896.0" y="144.0"/>
      <point x="896.0" y="296.0" type="curve" smooth="yes"/>
      <point x="896.0" y="443.0"/>
      <point x="833.0" y="492.0"/>
      <point x="748.0" y="478.0" type="curve"/>
      <point x="756.0" y="468.0"/>
      <point x="762.0" y="456.0"/>
      <point x="762.0" y="429.0" type="curve" smooth="yes"/>
      <point x="762.0" y="381.0"/>
      <point x="725.0" y="334.0"/>
      <point x="678.0" y="334.0" type="curve" smooth="yes"/>
      <point x="651.0" y="334.0"/>
      <point x="628.0" y="338.0"/>
      <point x="618.0" y="346.0" type="curve"/>
      <point x="596.0" y="335.0"/>
      <point x="587.0" y="300.0"/>
      <point x="587.0" y="245.0" type="curve" smooth="yes"/>
    </contour>
    <contour>
      <point x="585.0" y="127.0" type="curve"/>
      <point x="533.0" y="181.0"/>
      <point x="541.0" y="328.0"/>
      <point x="588.0" y="363.0" type="curve"/>
      <point x="568.0" y="376.0"/>
      <point x="552.0" y="408.0"/>
      <point x="565.0" y="449.0" type="curve"/>
      <point x="573.0" y="447.0" type="line"/>
      <point x="573.0" y="400.0"/>
      <point x="613.0" y="376.0"/>
      <point x="652.0" y="376.0" type="curve"/>
      <point x="707.0" y="376.0"/>
      <point x="727.0" y="400.0"/>
      <point x="727.0" y="443.0" type="curve" smooth="yes"/>
      <point x="727.0" y="459.0"/>
      <point x="714.0" y="476.0"/>
      <point x="688.0" y="493.0" type="curve" smooth="yes"/>
      <point x="661.0" y="511.0"/>
      <point x="626.0" y="526.0"/>
      <point x="572.0" y="520.0" type="curve" smooth="yes"/>
      <point x="554.0" y="518.0"/>
      <point x="512.0" y="491.0"/>
      <point x="492.0" y="476.0" type="curve" smooth="yes"/>
      <point x="455.0" y="448.0"/>
      <point x="436.0" y="418.0"/>
      <point x="436.0" y="313.0" type="curve" smooth="yes"/>
      <point x="436.0" y="185.0"/>
      <point x="477.0" y="147.0"/>
      <point x="510.0" y="135.0" type="curve" smooth="yes"/>
      <point x="553.0" y="127.0"/>
      <point x="568.0" y="124.0"/>
    </contour>
    <contour>
      <point x="420.0" y="168.0" type="line"/>
      <point x="406.0" y="204.0"/>
      <point x="395.0" y="246.0"/>
      <point x="395.0" y="293.0" type="curve"/>
      <point x="366.0" y="293.0" type="line"/>
      <point x="383.0" y="241.0" type="line"/>
      <point x="375.0" y="238.0" type="line"/>
      <point x="340.0" y="299.0" type="line"/>
      <point x="301.0" y="238.0" type="line"/>
      <point x="294.0" y="241.0" type="line"/>
      <point x="312.0" y="293.0" type="line"/>
      <point x="292.0" y="293.0" type="line" smooth="yes"/>
      <point x="277.0" y="293.0"/>
      <point x="270.0" y="283.0"/>
      <point x="270.0" y="260.0" type="curve" smooth="yes"/>
      <point x="270.0" y="212.0"/>
      <point x="296.0" y="168.0"/>
      <point x="343.0" y="168.0" type="curve" smooth="yes"/>
    </contour>
    <contour>
      <point x="248.0" y="410.0" type="line"/>
      <point x="104.0" y="379.0" type="line"/>
      <point x="233.0" y="355.0" type="line"/>
    </contour>
    <contour>
      <point x="233.0" y="336.0" type="line"/>
      <point x="104.0" y="305.0" type="line"/>
      <point x="233.0" y="275.0" type="line"/>
    </contour>
    <contour>
      <point x="233.0" y="253.0" type="line"/>
      <point x="104.0" y="233.0" type="line"/>
      <point x="248.0" y="197.0" type="line"/>
    </contour>
    <contour>
      <point x="420.0" y="447.0" type="curve"/>
      <point x="343.0" y="447.0" type="line" smooth="yes"/>
      <point x="296.0" y="447.0"/>
      <point x="270.0" y="403.0"/>
      <point x="270.0" y="355.0" type="curve" smooth="yes"/>
      <point x="270.0" y="332.0"/>
      <point x="277.0" y="322.0"/>
      <point x="292.0" y="322.0" type="curve" smooth="yes"/>
      <point x="312.0" y="322.0" type="line"/>
      <point x="294.0" y="374.0" type="line"/>
      <point x="301.0" y="377.0" type="line"/>
      <point x="340.0" y="316.0" type="line"/>
      <point x="375.0" y="377.0" type="line"/>
      <point x="383.0" y="374.0" type="line"/>
      <point x="366.0" y="322.0" type="line"/>
      <point x="395.0" y="322.0" type="line"/>
      <point x="395.0" y="369.0"/>
      <point x="406.0" y="411.0"/>
    </contour>
  </outline>
</glyph>
<glyph name="wech" format="1">
  <advance width="720"/>
  <unicode hex="F8FF"/>
  <outline>
    <contour>
      <point x="720" y="83" type="line"/>
      <point x="157" y="83" type="line"/>
      <point x="157" y="658" type="line"/>
      <point x="720" y="658" type="line"/>
    </contour>
    <contour>
      <point x="190" y="116" type="line"/>
      <point x="687" y="116" type="line"/>
      <point x="687" y="625" type="line"/>
      <point x="190" y="625" type="line"/>
    </contour>
    <contour>
      <point x="396" y="412" type="line"/>
      <point x="356" y="412" type="line"/>
      <point x="340" y="449" type="line"/>
      <point x="340" y="452" type="line"/>
      <point x="334" y="452" type="line"/>
      <point x="334" y="449" type="line"/>
      <point x="318" y="412" type="line"/>
      <point x="278" y="412" type="line"/>
      <point x="258" y="583" type="line"/>
      <point x="299" y="583" type="line"/>
      <point x="313" y="467" type="line"/>
      <point x="319" y="467" type="line"/>
      <point x="320" y="515" type="line"/>
      <point x="353" y="515" type="line"/>
      <point x="355" y="467" type="line"/>
      <point x="361" y="467" type="line"/>
      <point x="370" y="583" type="line"/>
      <point x="412" y="583" type="line"/>
    </contour>
    <contour>
      <point x="596" y="549" type="line"/>
      <point x="526" y="549" type="line"/>
      <point x="526" y="516" type="line"/>
      <point x="583" y="516" type="line"/>
      <point x="583" y="481" type="line"/>
      <point x="526" y="481" type="line"/>
      <point x="526" y="447" type="line"/>
      <point x="597" y="447" type="line"/>
      <point x="597" y="412" type="line"/>
      <point x="483" y="412" type="line"/>
      <point x="483" y="583" type="line"/>
      <point x="596" y="583" type="line"/>
    </contour>
    <contour>
      <point x="389" y="199" type="move"/>
      <point x="392" y="160" type="line"/>
      <point x="382" y="154"/>
      <point x="365" y="153"/>
      <point x="348" y="153" type="curve" smooth="yes"/>
      <point x="297" y="153"/>
      <point x="266" y="186"/>
      <point x="266" y="243" type="curve" smooth="yes"/>
      <point x="266" y="299"/>
      <point x="300" y="331"/>
      <point x="351" y="331" type="curve" smooth="yes"/>
      <point x="367" y="331"/>
      <point x="383" y="327"/>
      <point x="392" y="323" type="curve"/>
      <point x="389" y="284" type="line"/>
      <point x="382" y="289"/>
      <point x="368" y="292"/>
      <point x="358" y="292" type="curve" smooth="yes"/>
      <point x="329" y="292"/>
      <point x="312" y="275"/>
      <point x="312" y="243" type="curve" smooth="yes"/>
      <point x="312" y="211"/>
      <point x="326" y="193"/>
      <point x="362" y="193" type="curve" smooth="yes"/>
      <point x="372" y="193"/>
      <point x="381" y="195"/>
      <point x="389" y="199" type="curve"/>
    </contour>
    <contour>
      <point x="524" y="156" type="line"/>
      <point x="478" y="156" type="line"/>
      <point x="478" y="328" type="line"/>
      <point x="524" y="328" type="line"/>
    </contour>
    <contour>
      <point x="610" y="156" type="line"/>
      <point x="564" y="156" type="line"/>
      <point x="564" y="328" type="line"/>
      <point x="610" y="328" type="line"/>
    </contour>
    <contour>
      <point x="513" y="258" type="line"/>
      <point x="577" y="258" type="line"/>
      <point x="577" y="220" type="line"/>
      <point x="513" y="220" type="line"/>
    </contour>
    <contour>
      <point x="439" y="345" type="move"/>
      <point x="452" y="345"/>
      <point x="460" y="355"/>
      <point x="460" y="367" type="curve" smooth="yes"/>
      <point x="460" y="378"/>
      <point x="452" y="389"/>
      <point x="439" y="389" type="curve" smooth="yes"/>
      <point x="425" y="389"/>
      <point x="418" y="378"/>
      <point x="418" y="367" type="curve" smooth="yes"/>
      <point x="418" y="355"/>
      <point x="425" y="345"/>
      <point x="439" y="345" type="curve"/>
    </contour>
  </outline>
</glyph>
<glyph name=".notdef" format="1">
  <advance width="570"/>
  <outline>
    <contour>
      <point x="532" y="0" type="line"/>
      <point x="687" y="730" type="line"/>
      <point x="193" y="730" type="line"/>
      <point x="38" y="0" type="line"/>
    </contour>
    <contour>
      <point x="602" y="605" type="line"/>
      <point x="500" y="126" type="line"/>
      <point x="124" y="126" type="line"/>
      <point x="226" y="605" type="line"/>
    </contour>
    <contour>
      <point x="380" y="330" type="curve" smooth="yes"/>
      <point x="453" y="338"/>
      <point x="507" y="401"/>
      <point x="507" y="475" type="curve" smooth="yes"/>
      <point x="507" y="533"/>
      <point x="470" y="577"/>
      <point x="406" y="577" type="curve" smooth="yes"/>
      <point x="337" y="577"/>
      <point x="288" y="545"/>
      <point x="260" y="482" type="curve"/>
      <point x="288" y="443" type="line"/>
      <point x="308" y="471"/>
      <point x="342" y="485"/>
      <point x="391" y="485" type="curve" smooth="yes"/>
      <point x="445" y="485"/>
      <point x="463" y="462"/>
      <point x="462" y="446" type="curve" smooth="yes"/>
      <point x="462" y="422"/>
      <point x="445" y="411"/>
      <point x="392" y="406" type="curve" smooth="yes"/>
      <point x="324" y="398"/>
      <point x="275" y="374"/>
      <point x="275" y="304" type="curve" smooth="yes"/>
      <point x="275" y="287"/>
      <point x="281" y="265"/>
      <point x="288" y="252" type="curve"/>
      <point x="325" y="257" type="line"/>
      <point x="322" y="266"/>
      <point x="319" y="279"/>
      <point x="319" y="290" type="curve" smooth="yes"/>
      <point x="319" y="319"/>
      <point x="355" y="326"/>
    </contour>
    <contour>
      <point x="329" y="151"/>
      <point x="347" y="169"/>
      <point x="347" y="190" type="curve" smooth="yes"/>
      <point x="347" y="209"/>
      <point x="336" y="223"/>
      <point x="316" y="223" type="curve" smooth="yes"/>
      <point x="287" y="223"/>
      <point x="268" y="211"/>
      <point x="268" y="181" type="curve" smooth="yes"/>
      <point x="268" y="165"/>
      <point x="280" y="151"/>
      <point x="301" y="151" type="curve" smooth="yes"/>
    </contour>
  </outline>
</glyph>
<glyph name="five.osf" format="1">
  <advance width="620"/>
  <outline>
    <contour>
      <point x="275" y="-210" type="curve" smooth="yes"/>
      <point x="451" y="-210"/>
      <point x="573" y="-87"/>
      <point x="573" y="87" type="curve" smooth="yes"/>
      <point x="573" y="190"/>
      <point x="505" y="264"/>
      <point x="402" y="264" type="curve" smooth="yes"/>
      <point x="319" y="264"/>
      <point x="243" y="244"/>
      <point x="217" y="213" type="curve"/>
      <point x="284" y="386" type="line"/>
      <point x="591" y="386" type="line"/>
      <point x="621" y="550" type="line"/>
      <point x="279" y="550" type="line"/>
      <point x="129" y="168" type="line"/>
      <point x="194" y="99" type="line"/>
      <point x="226" y="137"/>
      <point x="285" y="147"/>
      <point x="345" y="147" type="curve" smooth="yes"/>
      <point x="455" y="147"/>
      <point x="507" y="100"/>
      <point x="507" y="45" type="curve" smooth="yes"/>
      <point x="507" y="-20"/>
      <point x="441" y="-83"/>
      <point x="303" y="-83" type="curve" smooth="yes"/>
      <point x="205" y="-83"/>
      <point x="144" y="-33"/>
      <point x="131" y="8" type="curve"/>
      <point x="55" y="-52" type="line"/>
      <point x="71" y="-153"/>
      <point x="157" y="-210"/>
    </contour>
  </outline>
</glyph>
<glyph name="two.osf" format="1">
  <advance width="520"/>
  <outline>
    <contour>
      <point x="465" y="0" type="line"/>
      <point x="492" y="129" type="line"/>
      <point x="290" y="129" type="line"/>
      <point x="401" y="211"/>
      <point x="521" y="299"/>
      <point x="521" y="415" type="curve" smooth="yes"/>
      <point x="521" y="489"/>
      <point x="473" y="560"/>
      <point x="371" y="560" type="curve" smooth="yes"/>
      <point x="280" y="560"/>
      <point x="215" y="527"/>
      <point x="178" y="476" type="curve"/>
      <point x="174" y="368" type="line"/>
      <point x="199" y="395"/>
      <point x="245" y="428"/>
      <point x="322" y="428" type="curve" smooth="yes"/>
      <point x="401" y="428"/>
      <point x="430" y="394"/>
      <point x="430" y="354" type="curve" smooth="yes"/>
      <point x="430" y="297"/>
      <point x="299" y="195"/>
      <point x="45" y="0" type="curve"/>
    </contour>
  </outline>
</glyph>
<glyph name="zero.osf" format="1">
  <advance width="520"/>
  <outline>
    <contour>
      <point x="286" y="106" type="curve" smooth="yes"/>
      <point x="202" y="106"/>
      <point x="150" y="155"/>
      <point x="150" y="235" type="curve" smooth="yes"/>
      <point x="150" y="326"/>
      <point x="215" y="402"/>
      <point x="349" y="402" type="curve" smooth="yes"/>
      <point x="445" y="402"/>
      <point x="482" y="349"/>
      <point x="482" y="287" type="curve" smooth="yes"/>
      <point x="482" y="167"/>
      <point x="402" y="106"/>
    </contour>
    <contour>
      <point x="261" y="-10" type="curve" smooth="yes"/>
      <point x="437" y="-10"/>
      <point x="549" y="133"/>
      <point x="549" y="352" type="curve" smooth="yes"/>
      <point x="549" y="478"/>
      <point x="487" y="560"/>
      <point x="383" y="560" type="curve" smooth="yes"/>
      <point x="220" y="560"/>
      <point x="88" y="430"/>
      <point x="88" y="202" type="curve" smooth="yes"/>
      <point x="88" y="76"/>
      <point x="160" y="-10"/>
    </contour>
  </outline>
</glyph>
